<mxfile host="65bd71144e">
    <diagram name="Page-1" id="eW1F60yzvm5qQ9GdAVW1">
        <mxGraphModel dx="5998" dy="3277" grid="1" gridSize="10" guides="1" tooltips="1" connect="1" arrows="1" fold="1" page="1" pageScale="1" pageWidth="827" pageHeight="1169" background="#ffffff" math="0" shadow="0" adaptiveColors="auto">
            <root>
                <mxCell id="0"/>
                <mxCell id="1" parent="0"/>
                <mxCell id="DpDVmBFBOBijvgF_qr05-694" value="" style="group;rounded=1;fillColor=none;strokeColor=none;backgroundOutline=0;fontFamily=Helvetica;comic=0;" parent="1" vertex="1" connectable="0">
                    <mxGeometry x="-1126" y="-150" width="6502" height="3683.75" as="geometry"/>
                </mxCell>
                <mxCell id="DpDVmBFBOBijvgF_qr05-490" value="" style="group;labelBackgroundColor=none;rounded=1;comic=0;backgroundOutline=1;fontFamily=Helvetica;fillColor=none;" parent="DpDVmBFBOBijvgF_qr05-694" vertex="1" connectable="0">
                    <mxGeometry x="3622" width="2880" height="1452" as="geometry"/>
                </mxCell>
                <mxCell id="DpDVmBFBOBijvgF_qr05-301" value="" style="html=1;overflow=block;blockSpacing=1;whiteSpace=wrap;container=1;pointerEvents=0;collapsible=0;recursiveResize=0;fontSize=13;spacing=0;strokeOpacity=100;fillOpacity=0;rounded=1;absoluteArcSize=1;arcSize=7.5;strokeWidth=1.5;lucidId=acOROF5q2EE0;labelBackgroundColor=none;comic=0;backgroundOutline=1;fontFamily=Helvetica;" parent="DpDVmBFBOBijvgF_qr05-490" vertex="1">
                    <mxGeometry x="432" width="2016" height="1452" as="geometry"/>
                </mxCell>
                <mxCell id="DpDVmBFBOBijvgF_qr05-302" value="" style="html=1;overflow=block;blockSpacing=1;whiteSpace=wrap;fontSize=13;align=left;spacing=0;strokeOpacity=100;rounded=1;absoluteArcSize=1;arcSize=7.5;strokeWidth=1.5;lucidId=acORSkUuR-DV;fillColor=none;labelBackgroundColor=none;comic=0;backgroundOutline=1;fontFamily=Helvetica;" parent="DpDVmBFBOBijvgF_qr05-490" vertex="1">
                    <mxGeometry x="1500" y="159" width="900" height="900" as="geometry"/>
                </mxCell>
                <mxCell id="DpDVmBFBOBijvgF_qr05-303" value="Update Event" style="html=1;overflow=block;blockSpacing=1;whiteSpace=wrap;ellipse;fontSize=13;spacing=0;strokeOpacity=100;fillOpacity=100;rounded=1;absoluteArcSize=1;arcSize=7.5;fillColor=none;strokeWidth=1.5;lucidId=acORiFAueTTu;labelBackgroundColor=none;comic=0;backgroundOutline=1;fontFamily=Helvetica;" parent="DpDVmBFBOBijvgF_qr05-490" vertex="1">
                    <mxGeometry x="1817" y="545" width="250" height="55" as="geometry"/>
                </mxCell>
                <mxCell id="DpDVmBFBOBijvgF_qr05-304" value="Delete Event" style="html=1;overflow=block;blockSpacing=1;whiteSpace=wrap;ellipse;fontSize=13;spacing=0;strokeOpacity=100;fillOpacity=100;rounded=1;absoluteArcSize=1;arcSize=7.5;fillColor=none;strokeWidth=1.5;lucidId=acORYN91KmzP;labelBackgroundColor=none;comic=0;backgroundOutline=1;fontFamily=Helvetica;" parent="DpDVmBFBOBijvgF_qr05-490" vertex="1">
                    <mxGeometry x="1817" y="647" width="250" height="55" as="geometry"/>
                </mxCell>
                <mxCell id="DpDVmBFBOBijvgF_qr05-305" value="" style="html=1;jettySize=18;whiteSpace=wrap;fontSize=13;strokeWidth=1.5;rounded=1;arcSize=10;edgeStyle=orthogonalEdgeStyle;startArrow=none;endArrow=block;endFill=1;exitX=0.5;exitY=1;exitPerimeter=0;entryX=0.5;entryY=0;entryPerimeter=0;lucidId=acORDvNoJp0l;fillColor=none;labelBackgroundColor=none;fontColor=default;comic=0;backgroundOutline=1;fontFamily=Helvetica;" parent="DpDVmBFBOBijvgF_qr05-490" source="DpDVmBFBOBijvgF_qr05-311" target="DpDVmBFBOBijvgF_qr05-312" edge="1">
                    <mxGeometry width="100" height="100" relative="1" as="geometry">
                        <Array as="points"/>
                    </mxGeometry>
                </mxCell>
                <mxCell id="DpDVmBFBOBijvgF_qr05-306" value="&amp;lt;&amp;lt;Extends&amp;gt;&amp;gt;" style="text;html=1;resizable=0;labelBackgroundColor=default;align=center;verticalAlign=middle;fontSize=13;rounded=1;comic=0;backgroundOutline=1;fontFamily=Helvetica;" parent="DpDVmBFBOBijvgF_qr05-305" vertex="1">
                    <mxGeometry x="0.7537461094919613" relative="1" as="geometry"/>
                </mxCell>
                <mxCell id="DpDVmBFBOBijvgF_qr05-307" value="" style="html=1;jettySize=18;whiteSpace=wrap;fontSize=13;strokeWidth=1.5;rounded=1;arcSize=10;edgeStyle=orthogonalEdgeStyle;startArrow=none;endArrow=block;endFill=1;exitX=0.5;exitY=1;exitPerimeter=0;entryX=0.5;entryY=0;entryPerimeter=0;lucidId=acOR7sFkZPPS;fillColor=none;labelBackgroundColor=none;fontColor=default;comic=0;backgroundOutline=1;fontFamily=Helvetica;" parent="DpDVmBFBOBijvgF_qr05-490" source="DpDVmBFBOBijvgF_qr05-311" target="DpDVmBFBOBijvgF_qr05-313" edge="1">
                    <mxGeometry width="100" height="100" relative="1" as="geometry">
                        <Array as="points"/>
                    </mxGeometry>
                </mxCell>
                <mxCell id="DpDVmBFBOBijvgF_qr05-308" value="&amp;lt;&amp;lt;Extends&amp;gt;&amp;gt;" style="text;html=1;resizable=0;labelBackgroundColor=default;align=center;verticalAlign=middle;fontSize=13;rounded=1;comic=0;backgroundOutline=1;fontFamily=Helvetica;" parent="DpDVmBFBOBijvgF_qr05-307" vertex="1">
                    <mxGeometry x="0.7544003625104432" relative="1" as="geometry"/>
                </mxCell>
                <mxCell id="DpDVmBFBOBijvgF_qr05-309" value="" style="html=1;jettySize=18;whiteSpace=wrap;fontSize=13;strokeWidth=1.5;rounded=1;arcSize=10;edgeStyle=orthogonalEdgeStyle;startArrow=none;endArrow=block;endFill=1;exitX=0.5;exitY=1;exitPerimeter=0;entryX=0.5;entryY=0;entryPerimeter=0;lucidId=acORhou15MlC;fillColor=none;labelBackgroundColor=none;fontColor=default;comic=0;backgroundOutline=1;fontFamily=Helvetica;" parent="DpDVmBFBOBijvgF_qr05-490" source="DpDVmBFBOBijvgF_qr05-311" target="DpDVmBFBOBijvgF_qr05-314" edge="1">
                    <mxGeometry width="100" height="100" relative="1" as="geometry">
                        <Array as="points"/>
                    </mxGeometry>
                </mxCell>
                <mxCell id="DpDVmBFBOBijvgF_qr05-310" value="&amp;lt;&amp;lt;Extends&amp;gt;&amp;gt;" style="text;html=1;resizable=0;labelBackgroundColor=default;align=center;verticalAlign=middle;fontSize=13;rounded=1;comic=0;backgroundOutline=1;fontFamily=Helvetica;" parent="DpDVmBFBOBijvgF_qr05-309" vertex="1">
                    <mxGeometry x="0.46153850470683633" relative="1" as="geometry"/>
                </mxCell>
                <mxCell id="DpDVmBFBOBijvgF_qr05-311" value="List Event" style="html=1;overflow=block;blockSpacing=1;whiteSpace=wrap;ellipse;fontSize=13;spacing=0;strokeOpacity=100;fillOpacity=100;rounded=1;absoluteArcSize=1;arcSize=7.5;fillColor=none;strokeWidth=1.5;lucidId=acORoW6_uA5t;labelBackgroundColor=none;comic=0;backgroundOutline=1;fontFamily=Helvetica;" parent="DpDVmBFBOBijvgF_qr05-490" vertex="1">
                    <mxGeometry x="1817" y="750" width="250" height="55" as="geometry"/>
                </mxCell>
                <mxCell id="DpDVmBFBOBijvgF_qr05-312" value="Order Events" style="html=1;overflow=block;blockSpacing=1;whiteSpace=wrap;ellipse;fontSize=13;spacing=0;strokeOpacity=100;fillOpacity=100;rounded=1;absoluteArcSize=1;arcSize=7.5;fillColor=none;strokeWidth=1.5;lucidId=acORUxDtOusW;labelBackgroundColor=none;comic=0;backgroundOutline=1;fontFamily=Helvetica;" parent="DpDVmBFBOBijvgF_qr05-490" vertex="1">
                    <mxGeometry x="2105" y="953" width="250" height="55" as="geometry"/>
                </mxCell>
                <mxCell id="DpDVmBFBOBijvgF_qr05-313" value="Filter Events" style="html=1;overflow=block;blockSpacing=1;whiteSpace=wrap;ellipse;fontSize=13;spacing=0;strokeOpacity=100;fillOpacity=100;rounded=1;absoluteArcSize=1;arcSize=7.5;fillColor=none;strokeWidth=1.5;lucidId=acOR6.gFG_0f;labelBackgroundColor=none;comic=0;backgroundOutline=1;fontFamily=Helvetica;" parent="DpDVmBFBOBijvgF_qr05-490" vertex="1">
                    <mxGeometry x="1529" y="953" width="250" height="55" as="geometry"/>
                </mxCell>
                <mxCell id="DpDVmBFBOBijvgF_qr05-314" value="Search Events" style="html=1;overflow=block;blockSpacing=1;whiteSpace=wrap;ellipse;fontSize=13;spacing=0;strokeOpacity=100;fillOpacity=100;rounded=1;absoluteArcSize=1;arcSize=7.5;fillColor=none;strokeWidth=1.5;lucidId=acORe1xte_Ph;labelBackgroundColor=none;comic=0;backgroundOutline=1;fontFamily=Helvetica;" parent="DpDVmBFBOBijvgF_qr05-490" vertex="1">
                    <mxGeometry x="1817" y="953" width="250" height="55" as="geometry"/>
                </mxCell>
                <mxCell id="DpDVmBFBOBijvgF_qr05-315" value="Create Event" style="html=1;overflow=block;blockSpacing=1;whiteSpace=wrap;ellipse;fontSize=13;spacing=0;strokeOpacity=100;fillOpacity=100;rounded=1;absoluteArcSize=1;arcSize=7.5;fillColor=none;strokeWidth=1.5;lucidId=acORDAky3PJ7;labelBackgroundColor=none;comic=0;backgroundOutline=1;fontFamily=Helvetica;" parent="DpDVmBFBOBijvgF_qr05-490" vertex="1">
                    <mxGeometry x="1817" y="442" width="250" height="55" as="geometry"/>
                </mxCell>
                <mxCell id="DpDVmBFBOBijvgF_qr05-316" value="" style="html=1;jettySize=18;whiteSpace=wrap;fontSize=13;strokeWidth=1.5;rounded=1;arcSize=10;edgeStyle=orthogonalEdgeStyle;startArrow=none;endArrow=block;endFill=1;exitX=0.5;exitY=1;exitPerimeter=0;entryX=0.5;entryY=0;entryPerimeter=0;lucidId=acORfQap0ovg;labelBackgroundColor=none;fontColor=default;comic=0;backgroundOutline=1;fontFamily=Helvetica;" parent="DpDVmBFBOBijvgF_qr05-490" source="DpDVmBFBOBijvgF_qr05-322" target="DpDVmBFBOBijvgF_qr05-323" edge="1">
                    <mxGeometry width="100" height="100" relative="1" as="geometry">
                        <Array as="points"/>
                    </mxGeometry>
                </mxCell>
                <mxCell id="DpDVmBFBOBijvgF_qr05-317" value="App" style="html=1;overflow=block;blockSpacing=1;whiteSpace=wrap;fontSize=13;align=left;spacing=0;strokeOpacity=100;rounded=1;absoluteArcSize=1;arcSize=7.5;fillColor=none;strokeWidth=1.5;lucidId=acORK0meZk7C;labelBackgroundColor=none;comic=0;backgroundOutline=1;fontFamily=Helvetica;" parent="DpDVmBFBOBijvgF_qr05-490" vertex="1">
                    <mxGeometry x="492" y="132" width="936" height="1272" as="geometry"/>
                </mxCell>
                <mxCell id="DpDVmBFBOBijvgF_qr05-318" value="Organizer" style="html=1;overflow=block;blockSpacing=1;shape=umlActor;labelPosition=center;verticalLabelPosition=bottom;verticalAlign=top;whiteSpace=nowrap;fontSize=13;spacing=0;strokeOpacity=100;rounded=1;absoluteArcSize=1;arcSize=7.5;fillColor=none;strokeWidth=1.5;lucidId=acORhefoDm0e;labelBackgroundColor=none;comic=0;backgroundOutline=1;fontFamily=Helvetica;" parent="DpDVmBFBOBijvgF_qr05-490" vertex="1">
                    <mxGeometry x="2688" y="384" width="192" height="504" as="geometry"/>
                </mxCell>
                <mxCell id="DpDVmBFBOBijvgF_qr05-319" value="" style="html=1;jettySize=18;whiteSpace=wrap;fontSize=13;strokeWidth=1.5;rounded=1;arcSize=10;edgeStyle=orthogonalEdgeStyle;startArrow=none;endArrow=block;endFill=1;exitX=0.5;exitY=1;exitPerimeter=0;entryX=0.5;entryY=0;entryPerimeter=0;lucidId=acOR6Q5Ytv-~;fillColor=none;labelBackgroundColor=none;fontColor=default;comic=0;backgroundOutline=1;fontFamily=Helvetica;" parent="DpDVmBFBOBijvgF_qr05-490" source="DpDVmBFBOBijvgF_qr05-322" target="DpDVmBFBOBijvgF_qr05-323" edge="1">
                    <mxGeometry width="100" height="100" relative="1" as="geometry">
                        <Array as="points"/>
                    </mxGeometry>
                </mxCell>
                <mxCell id="DpDVmBFBOBijvgF_qr05-320" value="&amp;lt;&amp;lt;Includes&amp;gt;&amp;gt;" style="text;html=1;resizable=0;labelBackgroundColor=default;align=center;verticalAlign=middle;fontSize=13;rounded=1;comic=0;backgroundOutline=1;fontFamily=Helvetica;" parent="DpDVmBFBOBijvgF_qr05-319" vertex="1">
                    <mxGeometry x="-0.3207547688454063" relative="1" as="geometry"/>
                </mxCell>
                <mxCell id="DpDVmBFBOBijvgF_qr05-321" value="Attendee" style="html=1;overflow=block;blockSpacing=1;shape=umlActor;labelPosition=center;verticalLabelPosition=bottom;verticalAlign=top;whiteSpace=nowrap;fontSize=13;spacing=0;strokeOpacity=100;rounded=1;absoluteArcSize=1;arcSize=7.5;fillColor=none;strokeWidth=1.5;lucidId=acORiztm~Fa8;labelBackgroundColor=none;comic=0;backgroundOutline=1;fontFamily=Helvetica;" parent="DpDVmBFBOBijvgF_qr05-490" vertex="1">
                    <mxGeometry y="384" width="192" height="493" as="geometry"/>
                </mxCell>
                <mxCell id="DpDVmBFBOBijvgF_qr05-322" value="Login" style="html=1;overflow=block;blockSpacing=1;whiteSpace=wrap;ellipse;fontSize=13;spacing=0;strokeOpacity=100;fillOpacity=100;rounded=1;absoluteArcSize=1;arcSize=7.5;fillColor=none;strokeWidth=1.5;lucidId=acORpE8Sv9.B;labelBackgroundColor=none;comic=0;backgroundOutline=1;fontFamily=Helvetica;" parent="DpDVmBFBOBijvgF_qr05-490" vertex="1">
                    <mxGeometry x="1817" y="223" width="250" height="55" as="geometry"/>
                </mxCell>
                <mxCell id="DpDVmBFBOBijvgF_qr05-323" value="Verify User" style="html=1;overflow=block;blockSpacing=1;whiteSpace=wrap;ellipse;fontSize=13;spacing=0;strokeOpacity=100;fillOpacity=100;rounded=1;absoluteArcSize=1;arcSize=7.5;fillColor=none;strokeWidth=1.5;lucidId=acORsZ5ktdd8;labelBackgroundColor=none;comic=0;backgroundOutline=1;fontFamily=Helvetica;" parent="DpDVmBFBOBijvgF_qr05-490" vertex="1">
                    <mxGeometry x="1817" y="339" width="250" height="55" as="geometry"/>
                </mxCell>
                <mxCell id="DpDVmBFBOBijvgF_qr05-324" value="" style="html=1;jettySize=18;whiteSpace=wrap;fontSize=13;strokeWidth=1.5;rounded=1;arcSize=10;curved=1;startArrow=none;endArrow=none;exitX=0.496;exitY=0.5;exitPerimeter=0;entryX=1.003;entryY=0.5;entryPerimeter=0;lucidId=acOR_PbnXdj5;fillColor=none;labelBackgroundColor=none;fontColor=default;comic=0;backgroundOutline=1;fontFamily=Helvetica;" parent="DpDVmBFBOBijvgF_qr05-490" source="DpDVmBFBOBijvgF_qr05-318" target="DpDVmBFBOBijvgF_qr05-322" edge="1">
                    <mxGeometry width="100" height="100" relative="1" as="geometry">
                        <Array as="points">
                            <mxPoint x="2783" y="636"/>
                            <mxPoint x="2255" y="250"/>
                        </Array>
                    </mxGeometry>
                </mxCell>
                <mxCell id="DpDVmBFBOBijvgF_qr05-325" value="" style="html=1;jettySize=18;whiteSpace=wrap;fontSize=13;strokeWidth=1.5;rounded=1;arcSize=10;curved=1;startArrow=none;endArrow=none;exitX=0.496;exitY=0.5;exitPerimeter=0;entryX=1.003;entryY=0.5;entryPerimeter=0;lucidId=acOR9T6lqHdY;fillColor=none;labelBackgroundColor=none;fontColor=default;comic=0;backgroundOutline=1;fontFamily=Helvetica;" parent="DpDVmBFBOBijvgF_qr05-490" source="DpDVmBFBOBijvgF_qr05-318" target="DpDVmBFBOBijvgF_qr05-315" edge="1">
                    <mxGeometry width="100" height="100" relative="1" as="geometry">
                        <Array as="points">
                            <mxPoint x="2783" y="636"/>
                            <mxPoint x="2255" y="469"/>
                        </Array>
                    </mxGeometry>
                </mxCell>
                <mxCell id="DpDVmBFBOBijvgF_qr05-326" value="" style="html=1;jettySize=18;whiteSpace=wrap;fontSize=13;strokeWidth=1.5;rounded=1;arcSize=10;curved=1;startArrow=none;endArrow=none;exitX=0.496;exitY=0.5;exitPerimeter=0;entryX=1.003;entryY=0.5;entryPerimeter=0;lucidId=acORqPR4HNaO;fillColor=none;labelBackgroundColor=none;fontColor=default;comic=0;backgroundOutline=1;fontFamily=Helvetica;" parent="DpDVmBFBOBijvgF_qr05-490" source="DpDVmBFBOBijvgF_qr05-318" target="DpDVmBFBOBijvgF_qr05-303" edge="1">
                    <mxGeometry width="100" height="100" relative="1" as="geometry">
                        <Array as="points">
                            <mxPoint x="2783" y="636"/>
                            <mxPoint x="2255" y="572"/>
                        </Array>
                    </mxGeometry>
                </mxCell>
                <mxCell id="DpDVmBFBOBijvgF_qr05-327" value="" style="html=1;jettySize=18;whiteSpace=wrap;fontSize=13;strokeWidth=1.5;rounded=1;arcSize=10;curved=1;startArrow=none;endArrow=none;exitX=0.496;exitY=0.5;exitPerimeter=0;entryX=1.003;entryY=0.502;entryPerimeter=0;lucidId=acORv~Ipaph8;fillColor=none;labelBackgroundColor=none;fontColor=default;comic=0;backgroundOutline=1;fontFamily=Helvetica;" parent="DpDVmBFBOBijvgF_qr05-490" source="DpDVmBFBOBijvgF_qr05-318" target="DpDVmBFBOBijvgF_qr05-304" edge="1">
                    <mxGeometry width="100" height="100" relative="1" as="geometry">
                        <Array as="points">
                            <mxPoint x="2783" y="636"/>
                            <mxPoint x="2255" y="675"/>
                        </Array>
                    </mxGeometry>
                </mxCell>
                <mxCell id="DpDVmBFBOBijvgF_qr05-328" value="" style="html=1;jettySize=18;whiteSpace=wrap;fontSize=13;strokeWidth=1.5;rounded=1;arcSize=10;curved=1;startArrow=none;endArrow=none;exitX=0.496;exitY=0.5;exitPerimeter=0;entryX=1.003;entryY=0.5;entryPerimeter=0;lucidId=acORknkc5n7V;fillColor=none;labelBackgroundColor=none;fontColor=default;comic=0;backgroundOutline=1;fontFamily=Helvetica;" parent="DpDVmBFBOBijvgF_qr05-490" source="DpDVmBFBOBijvgF_qr05-318" target="DpDVmBFBOBijvgF_qr05-311" edge="1">
                    <mxGeometry width="100" height="100" relative="1" as="geometry">
                        <Array as="points">
                            <mxPoint x="2783" y="636"/>
                            <mxPoint x="2255" y="778"/>
                        </Array>
                    </mxGeometry>
                </mxCell>
                <mxCell id="DpDVmBFBOBijvgF_qr05-329" value="" style="html=1;jettySize=18;whiteSpace=wrap;fontSize=13;strokeWidth=1.5;rounded=1;arcSize=10;edgeStyle=orthogonalEdgeStyle;startArrow=none;endArrow=block;endFill=1;exitX=0.5;exitY=1;exitPerimeter=0;entryX=0.5;entryY=0;entryPerimeter=0;lucidId=acORoIY0yD_M;fillColor=none;labelBackgroundColor=none;fontColor=default;comic=0;backgroundOutline=1;fontFamily=Helvetica;" parent="DpDVmBFBOBijvgF_qr05-490" source="DpDVmBFBOBijvgF_qr05-336" target="DpDVmBFBOBijvgF_qr05-337" edge="1">
                    <mxGeometry width="100" height="100" relative="1" as="geometry">
                        <Array as="points"/>
                    </mxGeometry>
                </mxCell>
                <mxCell id="DpDVmBFBOBijvgF_qr05-330" value="&amp;lt;&amp;lt;Extends&amp;gt;&amp;gt;" style="text;html=1;resizable=0;labelBackgroundColor=default;align=center;verticalAlign=middle;fontSize=13;rounded=1;comic=0;backgroundOutline=1;fontFamily=Helvetica;" parent="DpDVmBFBOBijvgF_qr05-329" vertex="1">
                    <mxGeometry x="0.7537461094919613" relative="1" as="geometry"/>
                </mxCell>
                <mxCell id="DpDVmBFBOBijvgF_qr05-331" value="" style="html=1;jettySize=18;whiteSpace=wrap;fontSize=13;strokeWidth=1.5;rounded=1;arcSize=10;edgeStyle=orthogonalEdgeStyle;startArrow=none;endArrow=block;endFill=1;exitX=0.5;exitY=1;exitPerimeter=0;entryX=0.5;entryY=0;entryPerimeter=0;lucidId=acORgtVP1enp;fillColor=none;labelBackgroundColor=none;fontColor=default;comic=0;backgroundOutline=1;fontFamily=Helvetica;" parent="DpDVmBFBOBijvgF_qr05-490" source="DpDVmBFBOBijvgF_qr05-336" target="DpDVmBFBOBijvgF_qr05-338" edge="1">
                    <mxGeometry width="100" height="100" relative="1" as="geometry">
                        <Array as="points"/>
                    </mxGeometry>
                </mxCell>
                <mxCell id="DpDVmBFBOBijvgF_qr05-332" value="&amp;lt;&amp;lt;Extends&amp;gt;&amp;gt;" style="text;html=1;resizable=0;labelBackgroundColor=default;align=center;verticalAlign=middle;fontSize=13;rounded=1;comic=0;backgroundOutline=1;fontFamily=Helvetica;" parent="DpDVmBFBOBijvgF_qr05-331" vertex="1">
                    <mxGeometry x="0.7544003625104432" relative="1" as="geometry"/>
                </mxCell>
                <mxCell id="DpDVmBFBOBijvgF_qr05-333" value="" style="html=1;jettySize=18;whiteSpace=wrap;fontSize=13;strokeWidth=1.5;rounded=1;arcSize=10;edgeStyle=orthogonalEdgeStyle;startArrow=none;endArrow=block;endFill=1;exitX=0.5;exitY=1;exitPerimeter=0;entryX=0.5;entryY=0;entryPerimeter=0;lucidId=acORqtujx-Jj;fillColor=none;labelBackgroundColor=none;fontColor=default;comic=0;backgroundOutline=1;fontFamily=Helvetica;" parent="DpDVmBFBOBijvgF_qr05-490" source="DpDVmBFBOBijvgF_qr05-336" target="DpDVmBFBOBijvgF_qr05-339" edge="1">
                    <mxGeometry width="100" height="100" relative="1" as="geometry">
                        <Array as="points"/>
                    </mxGeometry>
                </mxCell>
                <mxCell id="DpDVmBFBOBijvgF_qr05-334" value="&amp;lt;&amp;lt;Extends&amp;gt;&amp;gt;" style="text;html=1;resizable=0;labelBackgroundColor=default;align=center;verticalAlign=middle;fontSize=13;rounded=1;comic=0;backgroundOutline=1;fontFamily=Helvetica;" parent="DpDVmBFBOBijvgF_qr05-333" vertex="1">
                    <mxGeometry x="0.46153850470683633" relative="1" as="geometry"/>
                </mxCell>
                <mxCell id="DpDVmBFBOBijvgF_qr05-335" value="" style="html=1;jettySize=18;whiteSpace=wrap;fontSize=13;strokeWidth=1.5;rounded=1;arcSize=10;edgeStyle=orthogonalEdgeStyle;startArrow=none;endArrow=block;endFill=1;exitX=0.5;exitY=1;exitPerimeter=0;entryX=0.5;entryY=0;entryPerimeter=0;lucidId=acORr4S2.GN8;labelBackgroundColor=none;fontColor=default;comic=0;backgroundOutline=1;fontFamily=Helvetica;" parent="DpDVmBFBOBijvgF_qr05-490" source="DpDVmBFBOBijvgF_qr05-340" target="DpDVmBFBOBijvgF_qr05-341" edge="1">
                    <mxGeometry width="100" height="100" relative="1" as="geometry">
                        <Array as="points"/>
                    </mxGeometry>
                </mxCell>
                <mxCell id="DpDVmBFBOBijvgF_qr05-336" value="List Event" style="html=1;overflow=block;blockSpacing=1;whiteSpace=wrap;ellipse;fontSize=13;spacing=0;strokeOpacity=100;fillOpacity=100;rounded=1;absoluteArcSize=1;arcSize=7.5;fillColor=none;strokeWidth=1.5;lucidId=acORWmV8ZV1L;labelBackgroundColor=none;comic=0;backgroundOutline=1;fontFamily=Helvetica;" parent="DpDVmBFBOBijvgF_qr05-490" vertex="1">
                    <mxGeometry x="807" y="568" width="227" height="82" as="geometry"/>
                </mxCell>
                <mxCell id="DpDVmBFBOBijvgF_qr05-337" value="Order Events" style="html=1;overflow=block;blockSpacing=1;whiteSpace=wrap;ellipse;fontSize=13;spacing=0;strokeOpacity=100;fillOpacity=100;rounded=1;absoluteArcSize=1;arcSize=7.5;fillColor=none;strokeWidth=1.5;lucidId=acORg.Z_QL-1;labelBackgroundColor=none;comic=0;backgroundOutline=1;fontFamily=Helvetica;" parent="DpDVmBFBOBijvgF_qr05-490" vertex="1">
                    <mxGeometry x="1076" y="877" width="227" height="82" as="geometry"/>
                </mxCell>
                <mxCell id="DpDVmBFBOBijvgF_qr05-338" value="Filter Events" style="html=1;overflow=block;blockSpacing=1;whiteSpace=wrap;ellipse;fontSize=13;spacing=0;strokeOpacity=100;fillOpacity=100;rounded=1;absoluteArcSize=1;arcSize=7.5;fillColor=none;strokeWidth=1.5;lucidId=acORFT-dTYVg;labelBackgroundColor=none;comic=0;backgroundOutline=1;fontFamily=Helvetica;" parent="DpDVmBFBOBijvgF_qr05-490" vertex="1">
                    <mxGeometry x="537" y="877" width="227" height="82" as="geometry"/>
                </mxCell>
                <mxCell id="DpDVmBFBOBijvgF_qr05-339" value="Search Events" style="html=1;overflow=block;blockSpacing=1;whiteSpace=wrap;ellipse;fontSize=13;spacing=0;strokeOpacity=100;fillOpacity=100;rounded=1;absoluteArcSize=1;arcSize=7.5;fillColor=none;strokeWidth=1.5;lucidId=acORS9eXJ3.8;labelBackgroundColor=none;comic=0;backgroundOutline=1;fontFamily=Helvetica;" parent="DpDVmBFBOBijvgF_qr05-490" vertex="1">
                    <mxGeometry x="807" y="877" width="227" height="82" as="geometry"/>
                </mxCell>
                <mxCell id="DpDVmBFBOBijvgF_qr05-340" value="Login" style="html=1;overflow=block;blockSpacing=1;whiteSpace=wrap;ellipse;fontSize=13;spacing=0;strokeOpacity=100;fillOpacity=100;rounded=1;absoluteArcSize=1;arcSize=7.5;fillColor=none;strokeWidth=1.5;lucidId=acORUv_l1Eu~;labelBackgroundColor=none;comic=0;backgroundOutline=1;fontFamily=Helvetica;" parent="DpDVmBFBOBijvgF_qr05-490" vertex="1">
                    <mxGeometry x="785" y="252" width="270" height="82" as="geometry"/>
                </mxCell>
                <mxCell id="DpDVmBFBOBijvgF_qr05-341" value="Verify User" style="html=1;overflow=block;blockSpacing=1;whiteSpace=wrap;ellipse;fontSize=13;spacing=0;strokeOpacity=100;fillOpacity=100;rounded=1;absoluteArcSize=1;arcSize=7.5;fillColor=none;strokeWidth=1.5;lucidId=acORn1NTw8h.;labelBackgroundColor=none;comic=0;backgroundOutline=1;fontFamily=Helvetica;" parent="DpDVmBFBOBijvgF_qr05-490" vertex="1">
                    <mxGeometry x="785" y="425" width="270" height="82" as="geometry"/>
                </mxCell>
                <mxCell id="DpDVmBFBOBijvgF_qr05-342" value="" style="html=1;jettySize=18;whiteSpace=wrap;fontSize=13;strokeWidth=1.5;rounded=1;arcSize=10;curved=1;startArrow=none;endArrow=none;exitX=0.504;exitY=0.5;exitPerimeter=0;entryX=-0.003;entryY=0.5;entryPerimeter=0;lucidId=acOR_sIFQROd;fillColor=none;labelBackgroundColor=none;fontColor=default;comic=0;backgroundOutline=1;fontFamily=Helvetica;" parent="DpDVmBFBOBijvgF_qr05-490" source="DpDVmBFBOBijvgF_qr05-321" target="DpDVmBFBOBijvgF_qr05-340" edge="1">
                    <mxGeometry width="100" height="100" relative="1" as="geometry">
                        <Array as="points">
                            <mxPoint x="97" y="630"/>
                            <mxPoint x="597" y="293"/>
                        </Array>
                    </mxGeometry>
                </mxCell>
                <mxCell id="DpDVmBFBOBijvgF_qr05-343" value="" style="html=1;jettySize=18;whiteSpace=wrap;fontSize=13;strokeWidth=1.5;rounded=1;arcSize=10;curved=1;startArrow=none;endArrow=none;exitX=0.504;exitY=0.5;exitPerimeter=0;entryX=-0.003;entryY=0.5;entryPerimeter=0;lucidId=acOR_sPL.JMl;fillColor=none;labelBackgroundColor=none;fontColor=default;comic=0;backgroundOutline=1;fontFamily=Helvetica;" parent="DpDVmBFBOBijvgF_qr05-490" source="DpDVmBFBOBijvgF_qr05-321" target="DpDVmBFBOBijvgF_qr05-336" edge="1">
                    <mxGeometry width="100" height="100" relative="1" as="geometry">
                        <Array as="points">
                            <mxPoint x="97" y="630"/>
                            <mxPoint x="618" y="609"/>
                        </Array>
                    </mxGeometry>
                </mxCell>
                <mxCell id="DpDVmBFBOBijvgF_qr05-344" value="Book Tickets" style="html=1;overflow=block;blockSpacing=1;whiteSpace=wrap;ellipse;fontSize=13;spacing=0;strokeOpacity=100;fillOpacity=100;rounded=1;absoluteArcSize=1;arcSize=7.5;fillColor=none;strokeWidth=1.5;lucidId=acOR_.E8_qpp;labelBackgroundColor=none;comic=0;backgroundOutline=1;fontFamily=Helvetica;" parent="DpDVmBFBOBijvgF_qr05-490" vertex="1">
                    <mxGeometry x="823" y="1041" width="195" height="90" as="geometry"/>
                </mxCell>
                <mxCell id="DpDVmBFBOBijvgF_qr05-345" value="Check Tickets Availability" style="html=1;overflow=block;blockSpacing=1;whiteSpace=wrap;ellipse;fontSize=13;spacing=0;strokeOpacity=100;fillOpacity=100;rounded=1;absoluteArcSize=1;arcSize=7.5;fillColor=none;strokeWidth=1.5;lucidId=acORZ3alR519;labelBackgroundColor=none;comic=0;backgroundOutline=1;fontFamily=Helvetica;" parent="DpDVmBFBOBijvgF_qr05-490" vertex="1">
                    <mxGeometry x="828" y="1236" width="184" height="90" as="geometry"/>
                </mxCell>
                <mxCell id="DpDVmBFBOBijvgF_qr05-346" value="" style="html=1;jettySize=18;whiteSpace=wrap;fontSize=13;strokeWidth=1.5;rounded=1;arcSize=10;curved=1;startArrow=none;endArrow=none;exitX=0.504;exitY=0.5;exitPerimeter=0;entryX=-0.004;entryY=0.5;entryPerimeter=0;lucidId=acOR2ldP.xVa;fillColor=none;labelBackgroundColor=none;fontColor=default;comic=0;backgroundOutline=1;fontFamily=Helvetica;" parent="DpDVmBFBOBijvgF_qr05-490" source="DpDVmBFBOBijvgF_qr05-321" target="DpDVmBFBOBijvgF_qr05-344" edge="1">
                    <mxGeometry width="100" height="100" relative="1" as="geometry">
                        <Array as="points">
                            <mxPoint x="97" y="630"/>
                            <mxPoint x="634" y="1086"/>
                        </Array>
                    </mxGeometry>
                </mxCell>
                <mxCell id="DpDVmBFBOBijvgF_qr05-590" value="" style="group;comic=0;backgroundOutline=1;fontFamily=Helvetica;labelBackgroundColor=none;rounded=1;" parent="DpDVmBFBOBijvgF_qr05-694" vertex="1" connectable="0">
                    <mxGeometry x="2166" y="70" width="1117" height="1381.25" as="geometry"/>
                </mxCell>
                <mxCell id="DpDVmBFBOBijvgF_qr05-557" value="User" style="html=1;overflow=block;blockSpacing=1;swimlane;childLayout=stackLayout;horizontal=1;horizontalStack=0;resizeParent=1;resizeParentMax=0;resizeLast=0;collapsible=0;marginBottom=0;swimlaneFillColor=none;startSize=25;whiteSpace=wrap;fontSize=16.7;fontStyle=1;align=center;spacing=0;strokeOpacity=100;fillOpacity=100;rounded=1;absoluteArcSize=1;arcSize=9;fillColor=none;strokeWidth=1.5;comic=0;backgroundOutline=1;fontFamily=Helvetica;labelBackgroundColor=none;" parent="DpDVmBFBOBijvgF_qr05-590" vertex="1">
                    <mxGeometry x="330" y="360" width="281" height="601.75" as="geometry"/>
                </mxCell>
                <mxCell id="DpDVmBFBOBijvgF_qr05-558" value="&lt;div style=&quot;display: flex; justify-content: center; align-items: baseline; font-size: 0px; line-height: 1.25; margin-top: -2px;&quot;&gt;&lt;ul&gt;&lt;li&gt;&lt;span style=&quot;font-size: 16.7px; color: rgb(0, 0, 0);&quot;&gt;- id: int&lt;/span&gt;&lt;/li&gt;&lt;li&gt;&lt;span style=&quot;font-size: 16.7px; color: rgb(0, 0, 0);&quot;&gt;- name: str&lt;/span&gt;&lt;/li&gt;&lt;li&gt;&lt;span style=&quot;font-size: 16.7px; color: rgb(0, 0, 0);&quot;&gt;- email: str&lt;/span&gt;&lt;/li&gt;&lt;li&gt;&lt;span style=&quot;font-size: 16.7px; color: rgb(0, 0, 0);&quot;&gt;- password: str&lt;/span&gt;&lt;/li&gt;&lt;li&gt;&lt;span style=&quot;font-size: 16.7px; color: rgb(0, 0, 0);&quot;&gt;- token: str&lt;/span&gt;&lt;/li&gt;&lt;li&gt;&lt;span style=&quot;font-size:16.7px;&quot;&gt;&lt;span style=&quot;font-size:16.7px;&quot;&gt;- access_type: enum (ORGANISER , ATTENDEE)&lt;/span&gt;&lt;/span&gt;&lt;/li&gt;&lt;li&gt;&lt;span style=&quot;font-size: 16.7px; color: rgb(0, 0, 0);&quot;&gt;- created_at: str&lt;/span&gt;&lt;/li&gt;&lt;li&gt;&lt;span style=&quot;font-size: 16.7px; color: rgb(0, 0, 0);&quot;&gt;- updated_at: str&lt;/span&gt;&lt;/li&gt;&lt;/ul&gt;&lt;/div&gt;" style="part=1;html=1;resizeHeight=0;strokeColor=none;fillColor=none;align=left;verticalAlign=middle;spacingLeft=4;spacingRight=4;overflow=hidden;rotatable=0;points=[[0,0.5],[1,0.5]];portConstraint=eastwest;swimlaneFillColor=#ffffff;strokeOpacity=100;fillOpacity=100;whiteSpace=wrap;fontSize=16.7;comic=0;backgroundOutline=1;fontFamily=Helvetica;labelBackgroundColor=none;rounded=1;" parent="DpDVmBFBOBijvgF_qr05-557" vertex="1">
                    <mxGeometry y="25" width="281" height="239" as="geometry"/>
                </mxCell>
                <mxCell id="DpDVmBFBOBijvgF_qr05-559" value="" style="line;strokeWidth=1;fillColor=none;align=left;verticalAlign=middle;spacingTop=-1;spacingLeft=3;spacingRight=3;rotatable=0;labelPosition=right;points=[];portConstraint=eastwest;comic=0;backgroundOutline=1;fontFamily=Helvetica;labelBackgroundColor=none;rounded=1;" parent="DpDVmBFBOBijvgF_qr05-557" vertex="1">
                    <mxGeometry y="264" width="281" height="8" as="geometry"/>
                </mxCell>
                <mxCell id="DpDVmBFBOBijvgF_qr05-560" value="&lt;div style=&quot;display: flex; justify-content: center; align-items: baseline; font-size: 0px; line-height: 1.25; margin-top: -2px;&quot;&gt;&lt;ul&gt;&lt;li&gt;&lt;span style=&quot;font-size: 16.7px; color: rgb(0, 0, 0);&quot;&gt;+ register(): dict&lt;/span&gt;&lt;/li&gt;&lt;li&gt;&lt;span style=&quot;font-size: 16.7px; color: rgb(0, 0, 0);&quot;&gt;+ login(): dict&lt;/span&gt;&lt;/li&gt;&lt;li&gt;&lt;span style=&quot;font-size: 16.7px; color: rgb(0, 0, 0);&quot;&gt;+ update(): dict&lt;/span&gt;&lt;/li&gt;&lt;li&gt;&lt;span style=&quot;font-size: 16.7px; color: rgb(0, 0, 0);&quot;&gt;+ delete(): bool&lt;/span&gt;&lt;/li&gt;&lt;/ul&gt;&lt;/div&gt;&lt;div style=&quot;display: flex; justify-content: center; text-align: center; align-items: baseline; font-size: 0; line-height: 1.25;margin-top: -2px;&quot;&gt;&lt;span&gt;&lt;/span&gt;&lt;/div&gt;" style="part=1;resizeHeight=0;strokeColor=none;fillColor=none;align=left;verticalAlign=middle;spacingLeft=4;spacingRight=4;rotatable=0;points=[[0,0.5],[1,0.5]];portConstraint=eastwest;swimlaneFillColor=#ffffff;strokeOpacity=100;fillOpacity=100;whiteSpace=wrap;overflow=block;blockSpacing=1;html=1;fontSize=13;comic=0;backgroundOutline=1;fontFamily=Helvetica;labelBackgroundColor=none;rounded=1;" parent="DpDVmBFBOBijvgF_qr05-557" vertex="1">
                    <mxGeometry y="272" width="281" height="329.75" as="geometry"/>
                </mxCell>
                <mxCell id="DpDVmBFBOBijvgF_qr05-561" value="Event" style="html=1;overflow=block;blockSpacing=1;swimlane;childLayout=stackLayout;horizontal=1;horizontalStack=0;resizeParent=1;resizeParentMax=0;resizeLast=0;collapsible=0;marginBottom=0;swimlaneFillColor=none;startSize=25;whiteSpace=wrap;fontSize=16.7;fontStyle=1;align=center;spacing=0;strokeOpacity=100;fillOpacity=100;rounded=1;absoluteArcSize=1;arcSize=9;fillColor=none;strokeWidth=1.5;comic=0;backgroundOutline=1;fontFamily=Helvetica;labelBackgroundColor=none;" parent="DpDVmBFBOBijvgF_qr05-590" vertex="1">
                    <mxGeometry x="836" y="306.75" width="281" height="420" as="geometry"/>
                </mxCell>
                <mxCell id="DpDVmBFBOBijvgF_qr05-562" value="&lt;div style=&quot;display: flex; justify-content: center; align-items: baseline; font-size: 0px; line-height: 1.25; margin-top: -2px;&quot;&gt;&lt;ul&gt;&lt;li&gt;&lt;span style=&quot;font-size: 16.7px; color: rgb(0, 0, 0);&quot;&gt;- id: int&lt;/span&gt;&lt;/li&gt;&lt;li&gt;&lt;span style=&quot;font-size: 16.7px; color: rgb(0, 0, 0);&quot;&gt;- title: str&lt;/span&gt;&lt;/li&gt;&lt;li&gt;&lt;span style=&quot;font-size: 16.7px; color: rgb(0, 0, 0);&quot;&gt;- description: str&lt;/span&gt;&lt;/li&gt;&lt;li&gt;&lt;span style=&quot;font-size: 16.7px; color: rgb(0, 0, 0);&quot;&gt;- location: dict{lat: decimal , long: decimal}&lt;/span&gt;&lt;/li&gt;&lt;li&gt;&lt;br&gt;&lt;/li&gt;&lt;li&gt;&lt;span style=&quot;font-size: 16.7px; color: rgb(0, 0, 0);&quot;&gt;- date_time: str&lt;/span&gt;&lt;/li&gt;&lt;li&gt;&lt;span style=&quot;font-size: 16.7px; color: rgb(0, 0, 0);&quot;&gt;- tickets_count: int&lt;/span&gt;&lt;/li&gt;&lt;li&gt;&lt;span style=&quot;font-size: 16.7px; color: rgb(0, 0, 0);&quot;&gt;- ticket_price: &lt;/span&gt;&lt;span style=&quot;font-size:16.7px;&quot;&gt;decimal&lt;/span&gt;&lt;/li&gt;&lt;li&gt;&lt;span style=&quot;font-size: 16.7px; color: rgb(0, 0, 0);&quot;&gt;- organiser_id: int&lt;/span&gt;&lt;/li&gt;&lt;/ul&gt;&lt;/div&gt;" style="part=1;html=1;resizeHeight=0;strokeColor=none;fillColor=none;align=left;verticalAlign=middle;spacingLeft=4;spacingRight=4;overflow=hidden;rotatable=0;points=[[0,0.5],[1,0.5]];portConstraint=eastwest;swimlaneFillColor=#ffffff;strokeOpacity=100;fillOpacity=100;whiteSpace=wrap;fontSize=16.7;comic=0;backgroundOutline=1;fontFamily=Helvetica;labelBackgroundColor=none;rounded=1;" parent="DpDVmBFBOBijvgF_qr05-561" vertex="1">
                    <mxGeometry y="25" width="281" height="263" as="geometry"/>
                </mxCell>
                <mxCell id="DpDVmBFBOBijvgF_qr05-563" value="" style="line;strokeWidth=1;fillColor=none;align=left;verticalAlign=middle;spacingTop=-1;spacingLeft=3;spacingRight=3;rotatable=0;labelPosition=right;points=[];portConstraint=eastwest;comic=0;backgroundOutline=1;fontFamily=Helvetica;labelBackgroundColor=none;rounded=1;" parent="DpDVmBFBOBijvgF_qr05-561" vertex="1">
                    <mxGeometry y="288" width="281" height="8" as="geometry"/>
                </mxCell>
                <mxCell id="DpDVmBFBOBijvgF_qr05-564" value="&lt;div style=&quot;display: flex; justify-content: center; align-items: baseline; font-size: 0px; line-height: 1.25; margin-top: -2px;&quot;&gt;&lt;ul&gt;&lt;li&gt;&lt;span style=&quot;font-size: 16.7px; color: rgb(0, 0, 0);&quot;&gt;+ create(): dict&lt;/span&gt;&lt;/li&gt;&lt;li&gt;&lt;span style=&quot;font-size: 16.7px; color: rgb(0, 0, 0);&quot;&gt;+ update(): dict&lt;/span&gt;&lt;/li&gt;&lt;li&gt;&lt;span style=&quot;font-size: 16.7px; color: rgb(0, 0, 0);&quot;&gt;+ delete(): bool&lt;/span&gt;&lt;/li&gt;&lt;/ul&gt;&lt;/div&gt;" style="part=1;resizeHeight=0;strokeColor=none;fillColor=none;align=left;verticalAlign=middle;spacingLeft=4;spacingRight=4;rotatable=0;points=[[0,0.5],[1,0.5]];portConstraint=eastwest;swimlaneFillColor=#ffffff;strokeOpacity=100;fillOpacity=100;whiteSpace=wrap;overflow=block;blockSpacing=1;html=1;fontSize=13;comic=0;backgroundOutline=1;fontFamily=Helvetica;labelBackgroundColor=none;rounded=1;" parent="DpDVmBFBOBijvgF_qr05-561" vertex="1">
                    <mxGeometry y="296" width="281" height="124" as="geometry"/>
                </mxCell>
                <mxCell id="DpDVmBFBOBijvgF_qr05-565" value="" style="html=1;jettySize=18;whiteSpace=wrap;overflow=block;blockSpacing=1;fontSize=13;strokeOpacity=100;strokeWidth=0.8;rounded=1;arcSize=12;edgeStyle=orthogonalEdgeStyle;startArrow=none;endArrow=none;exitX=1;exitY=0.5;exitPerimeter=0;entryX=0;entryY=0.35;entryPerimeter=0;lucidId=ebOReUxffXo_;align=left;fillColor=none;comic=0;backgroundOutline=1;fontFamily=Helvetica;labelBackgroundColor=none;fontColor=default;" parent="DpDVmBFBOBijvgF_qr05-590" source="DpDVmBFBOBijvgF_qr05-557" target="DpDVmBFBOBijvgF_qr05-561" edge="1">
                    <mxGeometry width="100" height="100" relative="1" as="geometry">
                        <Array as="points"/>
                    </mxGeometry>
                </mxCell>
                <mxCell id="DpDVmBFBOBijvgF_qr05-566" value="1..*" style="text;html=1;resizable=0;labelBackgroundColor=default;align=center;verticalAlign=middle;fontStyle=1;fontSize=13.3;comic=0;backgroundOutline=1;fontFamily=Helvetica;rounded=1;" parent="DpDVmBFBOBijvgF_qr05-565" vertex="1">
                    <mxGeometry x="0.8738335406927111" relative="1" as="geometry">
                        <mxPoint as="offset"/>
                    </mxGeometry>
                </mxCell>
                <mxCell id="DpDVmBFBOBijvgF_qr05-567" value="Ticket" style="html=1;overflow=block;blockSpacing=1;swimlane;childLayout=stackLayout;horizontal=1;horizontalStack=0;resizeParent=1;resizeParentMax=0;resizeLast=0;collapsible=0;marginBottom=0;swimlaneFillColor=none;startSize=25;whiteSpace=wrap;fontSize=16.7;fontStyle=1;align=center;spacing=0;strokeOpacity=100;fillOpacity=100;rounded=1;absoluteArcSize=1;arcSize=9;fillColor=none;strokeWidth=1.5;comic=0;backgroundOutline=1;fontFamily=Helvetica;labelBackgroundColor=none;" parent="DpDVmBFBOBijvgF_qr05-590" vertex="1">
                    <mxGeometry x="555" y="1065" width="281" height="316.25" as="geometry"/>
                </mxCell>
                <mxCell id="DpDVmBFBOBijvgF_qr05-568" value="&lt;div style=&quot;display: flex; justify-content: center; align-items: baseline; font-size: 0px; line-height: 1.25; margin-top: -2px;&quot;&gt;&lt;ul&gt;&lt;li&gt;&lt;span style=&quot;font-size: 16.7px; color: rgb(0, 0, 0);&quot;&gt;- id: int&lt;/span&gt;&lt;/li&gt;&lt;li&gt;&lt;span style=&quot;font-size: 16.7px; color: rgb(0, 0, 0);&quot;&gt;- event_id: int&lt;/span&gt;&lt;/li&gt;&lt;li&gt;&lt;span style=&quot;font-size: 16.7px; color: rgb(0, 0, 0);&quot;&gt;- ticket_code: str&lt;/span&gt;&lt;/li&gt;&lt;li&gt;&lt;span style=&quot;font-size: 16.7px; color: rgb(0, 0, 0);&quot;&gt;- attendee_id: int|None&lt;/span&gt;&lt;/li&gt;&lt;/ul&gt;&lt;/div&gt;&lt;div style=&quot;display: flex; justify-content: center; text-align: center; align-items: baseline; font-size: 0; line-height: 1.25;margin-top: -2px;&quot;&gt;&lt;span&gt;&lt;/span&gt;&lt;/div&gt;" style="part=1;html=1;resizeHeight=0;strokeColor=none;fillColor=none;align=left;verticalAlign=middle;spacingLeft=4;spacingRight=4;overflow=hidden;rotatable=0;points=[[0,0.5],[1,0.5]];portConstraint=eastwest;swimlaneFillColor=#ffffff;strokeOpacity=100;fillOpacity=100;whiteSpace=wrap;fontSize=16.7;comic=0;backgroundOutline=1;fontFamily=Helvetica;labelBackgroundColor=none;rounded=1;" parent="DpDVmBFBOBijvgF_qr05-567" vertex="1">
                    <mxGeometry y="25" width="281" height="137" as="geometry"/>
                </mxCell>
                <mxCell id="DpDVmBFBOBijvgF_qr05-569" value="" style="line;strokeWidth=1;fillColor=none;align=left;verticalAlign=middle;spacingTop=-1;spacingLeft=3;spacingRight=3;rotatable=0;labelPosition=right;points=[];portConstraint=eastwest;comic=0;backgroundOutline=1;fontFamily=Helvetica;labelBackgroundColor=none;rounded=1;" parent="DpDVmBFBOBijvgF_qr05-567" vertex="1">
                    <mxGeometry y="162" width="281" height="8" as="geometry"/>
                </mxCell>
                <mxCell id="DpDVmBFBOBijvgF_qr05-570" value="&lt;div style=&quot;display: flex; justify-content: center; align-items: baseline; font-size: 0px; line-height: 1.25; margin-top: -2px;&quot;&gt;&lt;ul&gt;&lt;li&gt;&lt;span style=&quot;font-size:16.7px;&quot;&gt;+ create(): dict&lt;/span&gt;&lt;/li&gt;&lt;li&gt;&lt;span style=&quot;font-size:16.7px;&quot;&gt;+ update(): dict&lt;/span&gt;&lt;/li&gt;&lt;li&gt;&lt;span style=&quot;font-size:16.7px;&quot;&gt;+ delete(): bool&lt;/span&gt;&lt;/li&gt;&lt;/ul&gt;&lt;/div&gt;" style="part=1;resizeHeight=0;strokeColor=none;fillColor=none;align=center;verticalAlign=middle;spacingLeft=4;spacingRight=4;rotatable=0;points=[[0,0.5],[1,0.5]];portConstraint=eastwest;swimlaneFillColor=#ffffff;strokeOpacity=100;fillOpacity=100;whiteSpace=wrap;overflow=block;blockSpacing=1;html=1;fontSize=13;labelPosition=center;verticalLabelPosition=middle;comic=0;backgroundOutline=1;fontFamily=Helvetica;labelBackgroundColor=none;rounded=1;" parent="DpDVmBFBOBijvgF_qr05-567" vertex="1">
                    <mxGeometry y="170" width="281" height="146.25" as="geometry"/>
                </mxCell>
                <mxCell id="DpDVmBFBOBijvgF_qr05-571" value="" style="html=1;jettySize=18;whiteSpace=wrap;fontSize=13;strokeOpacity=100;strokeWidth=0.8;rounded=1;arcSize=12;edgeStyle=orthogonalEdgeStyle;startArrow=none;endArrow=diamond;endFill=1;endSize=16;exitX=1;exitY=0.5;exitPerimeter=0;entryX=0.5;entryY=1;entryPerimeter=0;lucidId=ebORd~rIjIJy;align=left;fillColor=none;comic=0;backgroundOutline=1;fontFamily=Helvetica;labelBackgroundColor=none;fontColor=default;" parent="DpDVmBFBOBijvgF_qr05-590" source="DpDVmBFBOBijvgF_qr05-567" target="DpDVmBFBOBijvgF_qr05-561" edge="1">
                    <mxGeometry width="100" height="100" relative="1" as="geometry">
                        <Array as="points"/>
                    </mxGeometry>
                </mxCell>
                <mxCell id="DpDVmBFBOBijvgF_qr05-572" value="1..*" style="text;html=1;resizable=0;labelBackgroundColor=default;align=center;verticalAlign=middle;fontStyle=1;fontSize=13.3;comic=0;backgroundOutline=1;fontFamily=Helvetica;rounded=1;" parent="DpDVmBFBOBijvgF_qr05-571" vertex="1">
                    <mxGeometry x="0.828622154548432" relative="1" as="geometry">
                        <mxPoint as="offset"/>
                    </mxGeometry>
                </mxCell>
                <mxCell id="DpDVmBFBOBijvgF_qr05-573" value="1" style="text;html=1;resizable=0;labelBackgroundColor=default;align=center;verticalAlign=middle;fontStyle=1;fontSize=13.3;comic=0;backgroundOutline=1;fontFamily=Helvetica;rounded=1;" parent="DpDVmBFBOBijvgF_qr05-571" vertex="1">
                    <mxGeometry x="-0.8386655222284379" relative="1" as="geometry"/>
                </mxCell>
                <mxCell id="DpDVmBFBOBijvgF_qr05-574" value="" style="html=1;jettySize=18;whiteSpace=wrap;fontSize=13;strokeOpacity=100;strokeWidth=0.8;rounded=1;arcSize=12;edgeStyle=orthogonalEdgeStyle;startArrow=none;endArrow=none;exitX=0;exitY=0.5;exitPerimeter=0;entryX=0.5;entryY=1;entryPerimeter=0;lucidId=ebORG8wVYMd_;align=left;fillColor=none;comic=0;backgroundOutline=1;fontFamily=Helvetica;labelBackgroundColor=none;fontColor=default;" parent="DpDVmBFBOBijvgF_qr05-590" source="DpDVmBFBOBijvgF_qr05-567" target="DpDVmBFBOBijvgF_qr05-557" edge="1">
                    <mxGeometry width="100" height="100" relative="1" as="geometry">
                        <Array as="points"/>
                    </mxGeometry>
                </mxCell>
                <mxCell id="DpDVmBFBOBijvgF_qr05-575" value="0..*" style="text;html=1;resizable=0;labelBackgroundColor=default;align=center;verticalAlign=middle;fontStyle=1;fontSize=13.3;comic=0;backgroundOutline=1;fontFamily=Helvetica;rounded=1;" parent="DpDVmBFBOBijvgF_qr05-574" vertex="1">
                    <mxGeometry x="-0.9161346136494519" relative="1" as="geometry"/>
                </mxCell>
                <mxCell id="DpDVmBFBOBijvgF_qr05-576" value="1" style="text;html=1;resizable=0;labelBackgroundColor=default;align=center;verticalAlign=middle;fontStyle=1;fontSize=13.3;comic=0;backgroundOutline=1;fontFamily=Helvetica;rounded=1;" parent="DpDVmBFBOBijvgF_qr05-574" vertex="1">
                    <mxGeometry x="0.876025168241463" relative="1" as="geometry"/>
                </mxCell>
                <mxCell id="DpDVmBFBOBijvgF_qr05-577" value="Order" style="html=1;overflow=block;blockSpacing=1;swimlane;childLayout=stackLayout;horizontal=1;horizontalStack=0;resizeParent=1;resizeParentMax=0;resizeLast=0;collapsible=0;marginBottom=0;swimlaneFillColor=none;startSize=25;whiteSpace=wrap;fontSize=16.7;fontStyle=1;align=center;spacing=0;strokeOpacity=100;fillOpacity=100;rounded=1;absoluteArcSize=1;arcSize=9;fillColor=none;strokeWidth=1.5;comic=0;backgroundOutline=1;fontFamily=Helvetica;labelBackgroundColor=none;" parent="DpDVmBFBOBijvgF_qr05-590" vertex="1">
                    <mxGeometry width="281" height="340.25" as="geometry"/>
                </mxCell>
                <mxCell id="DpDVmBFBOBijvgF_qr05-578" value="&lt;div style=&quot;display: flex; justify-content: center; align-items: baseline; font-size: 0px; line-height: 1.25; margin-top: -2px;&quot;&gt;&lt;ul&gt;&lt;li&gt;&lt;span style=&quot;font-size: 16.7px; color: rgb(0, 0, 0);&quot;&gt;- id: int&lt;/span&gt;&lt;/li&gt;&lt;li&gt;&lt;span style=&quot;font-size: 16.7px; color: rgb(0, 0, 0);&quot;&gt;- total: decimal&lt;/span&gt;&lt;/li&gt;&lt;li&gt;&lt;span style=&quot;font-size: 16.7px; color: rgb(0, 0, 0);&quot;&gt;- payment_method: enum (CASH , CREDIT)&lt;/span&gt;&lt;/li&gt;&lt;li&gt;&lt;span style=&quot;font-size: 16.7px; color: rgb(0, 0, 0);&quot;&gt;- user&lt;/span&gt;&lt;span style=&quot;font-size:16.7px;&quot;&gt;_id: int&lt;/span&gt;&lt;/li&gt;&lt;li&gt;&lt;span style=&quot;font-size:16.7px;&quot;&gt;&lt;span style=&quot;font-size:16.7px;&quot;&gt;- created_at: str&lt;/span&gt;&lt;/span&gt;&lt;/li&gt;&lt;li&gt;&lt;span style=&quot;font-size:16.7px;&quot;&gt;- updated_at: str&lt;/span&gt;&lt;/li&gt;&lt;/ul&gt;&lt;/div&gt;" style="part=1;html=1;resizeHeight=0;strokeColor=none;fillColor=none;align=left;verticalAlign=middle;spacingLeft=4;spacingRight=4;overflow=hidden;rotatable=0;points=[[0,0.5],[1,0.5]];portConstraint=eastwest;swimlaneFillColor=#ffffff;strokeOpacity=100;fillOpacity=100;whiteSpace=wrap;fontSize=16.7;comic=0;backgroundOutline=1;fontFamily=Helvetica;labelBackgroundColor=none;rounded=1;" parent="DpDVmBFBOBijvgF_qr05-577" vertex="1">
                    <mxGeometry y="25" width="281" height="149" as="geometry"/>
                </mxCell>
                <mxCell id="DpDVmBFBOBijvgF_qr05-579" value="" style="line;strokeWidth=1;fillColor=none;align=left;verticalAlign=middle;spacingTop=-1;spacingLeft=3;spacingRight=3;rotatable=0;labelPosition=right;points=[];portConstraint=eastwest;comic=0;backgroundOutline=1;fontFamily=Helvetica;labelBackgroundColor=none;rounded=1;" parent="DpDVmBFBOBijvgF_qr05-577" vertex="1">
                    <mxGeometry y="174" width="281" height="8" as="geometry"/>
                </mxCell>
                <mxCell id="DpDVmBFBOBijvgF_qr05-580" value="&lt;div style=&quot;display: flex; justify-content: center; align-items: baseline; font-size: 0px; line-height: 1.25; margin-top: -2px;&quot;&gt;&lt;ul&gt;&lt;li&gt;&lt;span style=&quot;font-size: 16.7px; color: rgb(0, 0, 0);&quot;&gt;+ create(): dict&lt;/span&gt;&lt;/li&gt;&lt;li&gt;&lt;span style=&quot;font-size: 16.7px; color: rgb(0, 0, 0);&quot;&gt;+ update(): dict&lt;/span&gt;&lt;/li&gt;&lt;li&gt;&lt;span style=&quot;font-size: 16.7px; color: rgb(0, 0, 0);&quot;&gt;+ delete(): dict&lt;/span&gt;&lt;/li&gt;&lt;/ul&gt;&lt;/div&gt;" style="part=1;resizeHeight=0;strokeColor=none;fillColor=none;align=left;verticalAlign=middle;spacingLeft=4;spacingRight=4;rotatable=0;points=[[0,0.5],[1,0.5]];portConstraint=eastwest;swimlaneFillColor=#ffffff;strokeOpacity=100;fillOpacity=100;whiteSpace=wrap;overflow=block;blockSpacing=1;html=1;fontSize=13;comic=0;backgroundOutline=1;fontFamily=Helvetica;labelBackgroundColor=none;rounded=1;" parent="DpDVmBFBOBijvgF_qr05-577" vertex="1">
                    <mxGeometry y="182" width="281" height="158.25" as="geometry"/>
                </mxCell>
                <mxCell id="DpDVmBFBOBijvgF_qr05-581" value="" style="html=1;jettySize=18;whiteSpace=wrap;fontSize=13;strokeOpacity=100;strokeWidth=0.8;rounded=1;arcSize=12;edgeStyle=orthogonalEdgeStyle;startArrow=none;endArrow=diamond;endFill=1;endSize=16;exitX=1;exitY=0.5;exitPerimeter=0;entryX=0.5;entryY=0;entryPerimeter=0;lucidId=ebORAXQ70hAM;align=left;fillColor=none;comic=0;backgroundOutline=1;fontFamily=Helvetica;labelBackgroundColor=none;fontColor=default;" parent="DpDVmBFBOBijvgF_qr05-590" source="DpDVmBFBOBijvgF_qr05-577" target="DpDVmBFBOBijvgF_qr05-557" edge="1">
                    <mxGeometry width="100" height="100" relative="1" as="geometry">
                        <Array as="points"/>
                    </mxGeometry>
                </mxCell>
                <mxCell id="DpDVmBFBOBijvgF_qr05-582" value="1" style="text;html=1;resizable=0;labelBackgroundColor=default;align=center;verticalAlign=middle;fontStyle=1;fontSize=13.3;comic=0;backgroundOutline=1;fontFamily=Helvetica;rounded=1;" parent="DpDVmBFBOBijvgF_qr05-581" vertex="1">
                    <mxGeometry x="0.8224451652391143" relative="1" as="geometry"/>
                </mxCell>
                <mxCell id="DpDVmBFBOBijvgF_qr05-583" value="0..*" style="text;html=1;resizable=0;labelBackgroundColor=default;align=center;verticalAlign=middle;fontStyle=1;fontSize=13.3;comic=0;backgroundOutline=1;fontFamily=Helvetica;rounded=1;" parent="DpDVmBFBOBijvgF_qr05-581" vertex="1">
                    <mxGeometry x="-0.9028530944666227" relative="1" as="geometry"/>
                </mxCell>
                <mxCell id="DpDVmBFBOBijvgF_qr05-584" value="" style="html=1;jettySize=18;whiteSpace=wrap;fontSize=13;strokeOpacity=100;strokeWidth=0.8;rounded=1;arcSize=12;edgeStyle=orthogonalEdgeStyle;startArrow=none;endArrow=diamond;endFill=1;endSize=16;exitX=0.5;exitY=1;exitPerimeter=0;entryX=0.5;entryY=1;entryPerimeter=0;lucidId=ebORNeIYjgmR;align=left;fillColor=none;comic=0;backgroundOutline=1;fontFamily=Helvetica;labelBackgroundColor=none;fontColor=default;" parent="DpDVmBFBOBijvgF_qr05-590" source="DpDVmBFBOBijvgF_qr05-577" target="DpDVmBFBOBijvgF_qr05-567" edge="1">
                    <mxGeometry width="100" height="100" relative="1" as="geometry">
                        <Array as="points"/>
                    </mxGeometry>
                </mxCell>
                <mxCell id="DpDVmBFBOBijvgF_qr05-585" value="1..*" style="text;html=1;resizable=0;labelBackgroundColor=default;align=center;verticalAlign=middle;fontStyle=1;fontSize=13.3;comic=0;backgroundOutline=1;fontFamily=Helvetica;rounded=1;" parent="DpDVmBFBOBijvgF_qr05-584" vertex="1">
                    <mxGeometry x="0.9262465353097131" relative="1" as="geometry"/>
                </mxCell>
                <mxCell id="DpDVmBFBOBijvgF_qr05-586" value="1" style="text;html=1;resizable=0;labelBackgroundColor=default;align=center;verticalAlign=middle;fontStyle=1;fontSize=13.3;comic=0;backgroundOutline=1;fontFamily=Helvetica;rounded=1;" parent="DpDVmBFBOBijvgF_qr05-584" vertex="1">
                    <mxGeometry x="-0.9678958351409979" relative="1" as="geometry"/>
                </mxCell>
                <mxCell id="DpDVmBFBOBijvgF_qr05-599" value="" style="group;comic=0;backgroundOutline=1;fontFamily=Helvetica;labelBackgroundColor=none;rounded=1;" parent="DpDVmBFBOBijvgF_qr05-694" vertex="1" connectable="0">
                    <mxGeometry x="2006" y="2330" width="1387" height="798" as="geometry"/>
                </mxCell>
                <mxCell id="DpDVmBFBOBijvgF_qr05-213" value="users" style="swimlane;fontStyle=0;childLayout=stackLayout;horizontal=1;startSize=26;horizontalStack=0;resizeParent=1;resizeLast=0;collapsible=1;marginBottom=0;swimlaneFillColor=none;align=center;fillColor=none;labelBackgroundColor=none;rounded=1;comic=0;backgroundOutline=1;fontFamily=Helvetica;" parent="DpDVmBFBOBijvgF_qr05-599" vertex="1">
                    <mxGeometry x="610" width="430" height="208" as="geometry">
                        <mxRectangle x="610" width="70" height="30" as="alternateBounds"/>
                    </mxGeometry>
                </mxCell>
                <mxCell id="DpDVmBFBOBijvgF_qr05-214" value="id" style="shape=partialRectangle;top=0;left=0;right=0;bottom=0;align=left;verticalAlign=top;spacingTop=-2;spacingLeft=64;spacingRight=4;overflow=hidden;rotatable=0;points=[[0,0.5],[1,0.5]];portConstraint=eastwest;dropTarget=0;fillColor=none;labelBackgroundColor=none;rounded=1;comic=0;backgroundOutline=1;fontFamily=Helvetica;" parent="DpDVmBFBOBijvgF_qr05-213" vertex="1">
                    <mxGeometry y="26" width="430" height="26" as="geometry"/>
                </mxCell>
                <mxCell id="DpDVmBFBOBijvgF_qr05-215" value="PK" style="shape=partialRectangle;top=0;left=0;bottom=0;align=left;verticalAlign=middle;spacingLeft=4;spacingRight=4;overflow=hidden;rotatable=180;points=[];portConstraint=eastwest;part=1;fillColor=none;labelBackgroundColor=none;rounded=1;comic=0;backgroundOutline=1;fontFamily=Helvetica;" parent="DpDVmBFBOBijvgF_qr05-214" vertex="1" connectable="0">
                    <mxGeometry width="54" height="26" as="geometry"/>
                </mxCell>
                <mxCell id="DpDVmBFBOBijvgF_qr05-216" value="name" style="shape=partialRectangle;top=0;left=0;right=0;bottom=0;align=left;verticalAlign=top;spacingTop=-2;spacingLeft=64;spacingRight=4;overflow=hidden;rotatable=0;points=[[0,0.5],[1,0.5]];portConstraint=eastwest;dropTarget=0;fillColor=none;labelBackgroundColor=none;rounded=1;comic=0;backgroundOutline=1;fontFamily=Helvetica;" parent="DpDVmBFBOBijvgF_qr05-213" vertex="1">
                    <mxGeometry y="52" width="430" height="26" as="geometry"/>
                </mxCell>
                <mxCell id="DpDVmBFBOBijvgF_qr05-217" value="" style="shape=partialRectangle;top=0;left=0;bottom=0;align=left;verticalAlign=middle;spacingLeft=4;spacingRight=4;overflow=hidden;rotatable=180;points=[];portConstraint=eastwest;part=1;fillColor=none;labelBackgroundColor=none;rounded=1;comic=0;backgroundOutline=1;fontFamily=Helvetica;" parent="DpDVmBFBOBijvgF_qr05-216" vertex="1" connectable="0">
                    <mxGeometry width="54" height="26" as="geometry"/>
                </mxCell>
                <mxCell id="DpDVmBFBOBijvgF_qr05-218" value="email" style="shape=partialRectangle;top=0;left=0;right=0;bottom=0;align=left;verticalAlign=top;spacingTop=-2;spacingLeft=64;spacingRight=4;overflow=hidden;rotatable=0;points=[[0,0.5],[1,0.5]];portConstraint=eastwest;dropTarget=0;fillColor=none;labelBackgroundColor=none;rounded=1;comic=0;backgroundOutline=1;fontFamily=Helvetica;" parent="DpDVmBFBOBijvgF_qr05-213" vertex="1">
                    <mxGeometry y="78" width="430" height="26" as="geometry"/>
                </mxCell>
                <mxCell id="DpDVmBFBOBijvgF_qr05-219" value="" style="shape=partialRectangle;top=0;left=0;bottom=0;align=left;verticalAlign=middle;spacingLeft=4;spacingRight=4;overflow=hidden;rotatable=180;points=[];portConstraint=eastwest;part=1;fillColor=none;labelBackgroundColor=none;rounded=1;comic=0;backgroundOutline=1;fontFamily=Helvetica;" parent="DpDVmBFBOBijvgF_qr05-218" vertex="1" connectable="0">
                    <mxGeometry width="54" height="26" as="geometry"/>
                </mxCell>
                <mxCell id="DpDVmBFBOBijvgF_qr05-220" value="password" style="shape=partialRectangle;top=0;left=0;right=0;bottom=0;align=left;verticalAlign=top;spacingTop=-2;spacingLeft=64;spacingRight=4;overflow=hidden;rotatable=0;points=[[0,0.5],[1,0.5]];portConstraint=eastwest;dropTarget=0;fillColor=none;labelBackgroundColor=none;rounded=1;comic=0;backgroundOutline=1;fontFamily=Helvetica;" parent="DpDVmBFBOBijvgF_qr05-213" vertex="1">
                    <mxGeometry y="104" width="430" height="26" as="geometry"/>
                </mxCell>
                <mxCell id="DpDVmBFBOBijvgF_qr05-221" value="" style="shape=partialRectangle;top=0;left=0;bottom=0;align=left;verticalAlign=middle;spacingLeft=4;spacingRight=4;overflow=hidden;rotatable=180;points=[];portConstraint=eastwest;part=1;fillColor=none;labelBackgroundColor=none;rounded=1;comic=0;backgroundOutline=1;fontFamily=Helvetica;" parent="DpDVmBFBOBijvgF_qr05-220" vertex="1" connectable="0">
                    <mxGeometry width="54" height="26" as="geometry"/>
                </mxCell>
                <mxCell id="DpDVmBFBOBijvgF_qr05-222" value="token" style="shape=partialRectangle;top=0;left=0;right=0;bottom=0;align=left;verticalAlign=top;spacingTop=-2;spacingLeft=64;spacingRight=4;overflow=hidden;rotatable=0;points=[[0,0.5],[1,0.5]];portConstraint=eastwest;dropTarget=0;fillColor=none;labelBackgroundColor=none;rounded=1;comic=0;backgroundOutline=1;fontFamily=Helvetica;" parent="DpDVmBFBOBijvgF_qr05-213" vertex="1">
                    <mxGeometry y="130" width="430" height="26" as="geometry"/>
                </mxCell>
                <mxCell id="DpDVmBFBOBijvgF_qr05-223" value="" style="shape=partialRectangle;top=0;left=0;bottom=0;align=left;verticalAlign=middle;spacingLeft=4;spacingRight=4;overflow=hidden;rotatable=180;points=[];portConstraint=eastwest;part=1;fillColor=none;labelBackgroundColor=none;rounded=1;comic=0;backgroundOutline=1;fontFamily=Helvetica;" parent="DpDVmBFBOBijvgF_qr05-222" vertex="1" connectable="0">
                    <mxGeometry width="54" height="26" as="geometry"/>
                </mxCell>
                <mxCell id="DpDVmBFBOBijvgF_qr05-224" value="created_at" style="shape=partialRectangle;top=0;left=0;right=0;bottom=0;align=left;verticalAlign=top;spacingTop=-2;spacingLeft=64;spacingRight=4;overflow=hidden;rotatable=0;points=[[0,0.5],[1,0.5]];portConstraint=eastwest;dropTarget=0;fillColor=none;labelBackgroundColor=none;rounded=1;comic=0;backgroundOutline=1;fontFamily=Helvetica;" parent="DpDVmBFBOBijvgF_qr05-213" vertex="1">
                    <mxGeometry y="156" width="430" height="26" as="geometry"/>
                </mxCell>
                <mxCell id="DpDVmBFBOBijvgF_qr05-225" value="" style="shape=partialRectangle;top=0;left=0;bottom=0;align=left;verticalAlign=middle;spacingLeft=4;spacingRight=4;overflow=hidden;rotatable=180;points=[];portConstraint=eastwest;part=1;fillColor=none;labelBackgroundColor=none;rounded=1;comic=0;backgroundOutline=1;fontFamily=Helvetica;" parent="DpDVmBFBOBijvgF_qr05-224" vertex="1" connectable="0">
                    <mxGeometry width="54" height="26" as="geometry"/>
                </mxCell>
                <mxCell id="DpDVmBFBOBijvgF_qr05-226" value="updated_at" style="shape=partialRectangle;top=0;left=0;right=0;bottom=0;align=left;verticalAlign=top;spacingTop=-2;spacingLeft=64;spacingRight=4;overflow=hidden;rotatable=0;points=[[0,0.5],[1,0.5]];portConstraint=eastwest;dropTarget=0;fillColor=none;labelBackgroundColor=none;rounded=1;comic=0;backgroundOutline=1;fontFamily=Helvetica;" parent="DpDVmBFBOBijvgF_qr05-213" vertex="1">
                    <mxGeometry y="182" width="430" height="26" as="geometry"/>
                </mxCell>
                <mxCell id="DpDVmBFBOBijvgF_qr05-227" value="" style="shape=partialRectangle;top=0;left=0;bottom=0;align=left;verticalAlign=middle;spacingLeft=4;spacingRight=4;overflow=hidden;rotatable=180;points=[];portConstraint=eastwest;part=1;fillColor=none;labelBackgroundColor=none;rounded=1;comic=0;backgroundOutline=1;fontFamily=Helvetica;" parent="DpDVmBFBOBijvgF_qr05-226" vertex="1" connectable="0">
                    <mxGeometry width="54" height="26" as="geometry"/>
                </mxCell>
                <mxCell id="DpDVmBFBOBijvgF_qr05-228" value="events" style="swimlane;fontStyle=0;childLayout=stackLayout;horizontal=1;startSize=26;horizontalStack=0;resizeParent=1;resizeLast=0;collapsible=1;marginBottom=0;swimlaneFillColor=none;align=center;fillColor=none;labelBackgroundColor=none;rounded=1;comic=0;backgroundOutline=1;fontFamily=Helvetica;" parent="DpDVmBFBOBijvgF_qr05-599" vertex="1">
                    <mxGeometry x="197" y="200" width="256" height="312" as="geometry"/>
                </mxCell>
                <mxCell id="DpDVmBFBOBijvgF_qr05-229" value="id" style="shape=partialRectangle;top=0;left=0;right=0;bottom=0;align=left;verticalAlign=top;spacingTop=-2;spacingLeft=64;spacingRight=4;overflow=hidden;rotatable=0;points=[[0,0.5],[1,0.5]];portConstraint=eastwest;dropTarget=0;fillColor=none;labelBackgroundColor=none;rounded=1;comic=0;backgroundOutline=1;fontFamily=Helvetica;" parent="DpDVmBFBOBijvgF_qr05-228" vertex="1">
                    <mxGeometry y="26" width="256" height="26" as="geometry"/>
                </mxCell>
                <mxCell id="DpDVmBFBOBijvgF_qr05-230" value="PK" style="shape=partialRectangle;top=0;left=0;bottom=0;align=left;verticalAlign=middle;spacingLeft=4;spacingRight=4;overflow=hidden;rotatable=180;points=[];portConstraint=eastwest;part=1;fillColor=none;labelBackgroundColor=none;rounded=1;comic=0;backgroundOutline=1;fontFamily=Helvetica;" parent="DpDVmBFBOBijvgF_qr05-229" vertex="1" connectable="0">
                    <mxGeometry width="54" height="26" as="geometry"/>
                </mxCell>
                <mxCell id="DpDVmBFBOBijvgF_qr05-231" value="title" style="shape=partialRectangle;top=0;left=0;right=0;bottom=0;align=left;verticalAlign=top;spacingTop=-2;spacingLeft=64;spacingRight=4;overflow=hidden;rotatable=0;points=[[0,0.5],[1,0.5]];portConstraint=eastwest;dropTarget=0;fillColor=none;labelBackgroundColor=none;rounded=1;comic=0;backgroundOutline=1;fontFamily=Helvetica;" parent="DpDVmBFBOBijvgF_qr05-228" vertex="1">
                    <mxGeometry y="52" width="256" height="26" as="geometry"/>
                </mxCell>
                <mxCell id="DpDVmBFBOBijvgF_qr05-232" value="" style="shape=partialRectangle;top=0;left=0;bottom=0;align=left;verticalAlign=middle;spacingLeft=4;spacingRight=4;overflow=hidden;rotatable=180;points=[];portConstraint=eastwest;part=1;fillColor=none;labelBackgroundColor=none;rounded=1;comic=0;backgroundOutline=1;fontFamily=Helvetica;" parent="DpDVmBFBOBijvgF_qr05-231" vertex="1" connectable="0">
                    <mxGeometry width="54" height="26" as="geometry"/>
                </mxCell>
                <mxCell id="DpDVmBFBOBijvgF_qr05-233" value="description" style="shape=partialRectangle;top=0;left=0;right=0;bottom=0;align=left;verticalAlign=top;spacingTop=-2;spacingLeft=64;spacingRight=4;overflow=hidden;rotatable=0;points=[[0,0.5],[1,0.5]];portConstraint=eastwest;dropTarget=0;fillColor=none;labelBackgroundColor=none;rounded=1;comic=0;backgroundOutline=1;fontFamily=Helvetica;" parent="DpDVmBFBOBijvgF_qr05-228" vertex="1">
                    <mxGeometry y="78" width="256" height="26" as="geometry"/>
                </mxCell>
                <mxCell id="DpDVmBFBOBijvgF_qr05-234" value="" style="shape=partialRectangle;top=0;left=0;bottom=0;align=left;verticalAlign=middle;spacingLeft=4;spacingRight=4;overflow=hidden;rotatable=180;points=[];portConstraint=eastwest;part=1;fillColor=none;labelBackgroundColor=none;rounded=1;comic=0;backgroundOutline=1;fontFamily=Helvetica;" parent="DpDVmBFBOBijvgF_qr05-233" vertex="1" connectable="0">
                    <mxGeometry width="54" height="26" as="geometry"/>
                </mxCell>
                <mxCell id="DpDVmBFBOBijvgF_qr05-235" value="date_time" style="shape=partialRectangle;top=0;left=0;right=0;bottom=0;align=left;verticalAlign=top;spacingTop=-2;spacingLeft=64;spacingRight=4;overflow=hidden;rotatable=0;points=[[0,0.5],[1,0.5]];portConstraint=eastwest;dropTarget=0;fillColor=none;labelBackgroundColor=none;rounded=1;comic=0;backgroundOutline=1;fontFamily=Helvetica;" parent="DpDVmBFBOBijvgF_qr05-228" vertex="1">
                    <mxGeometry y="104" width="256" height="26" as="geometry"/>
                </mxCell>
                <mxCell id="DpDVmBFBOBijvgF_qr05-236" value="" style="shape=partialRectangle;top=0;left=0;bottom=0;align=left;verticalAlign=middle;spacingLeft=4;spacingRight=4;overflow=hidden;rotatable=180;points=[];portConstraint=eastwest;part=1;fillColor=none;labelBackgroundColor=none;rounded=1;comic=0;backgroundOutline=1;fontFamily=Helvetica;" parent="DpDVmBFBOBijvgF_qr05-235" vertex="1" connectable="0">
                    <mxGeometry width="54" height="26" as="geometry"/>
                </mxCell>
                <mxCell id="DpDVmBFBOBijvgF_qr05-237" value="location" style="shape=partialRectangle;top=0;left=0;right=0;bottom=0;align=left;verticalAlign=top;spacingTop=-2;spacingLeft=64;spacingRight=4;overflow=hidden;rotatable=0;points=[[0,0.5],[1,0.5]];portConstraint=eastwest;dropTarget=0;fillColor=none;labelBackgroundColor=none;rounded=1;comic=0;backgroundOutline=1;fontFamily=Helvetica;" parent="DpDVmBFBOBijvgF_qr05-228" vertex="1">
                    <mxGeometry y="130" width="256" height="26" as="geometry"/>
                </mxCell>
                <mxCell id="DpDVmBFBOBijvgF_qr05-238" value="" style="shape=partialRectangle;top=0;left=0;bottom=0;align=left;verticalAlign=middle;spacingLeft=4;spacingRight=4;overflow=hidden;rotatable=180;points=[];portConstraint=eastwest;part=1;fillColor=none;labelBackgroundColor=none;rounded=1;comic=0;backgroundOutline=1;fontFamily=Helvetica;" parent="DpDVmBFBOBijvgF_qr05-237" vertex="1" connectable="0">
                    <mxGeometry width="54" height="26" as="geometry"/>
                </mxCell>
                <mxCell id="DpDVmBFBOBijvgF_qr05-239" value="location_type" style="shape=partialRectangle;top=0;left=0;right=0;bottom=0;align=left;verticalAlign=top;spacingTop=-2;spacingLeft=64;spacingRight=4;overflow=hidden;rotatable=0;points=[[0,0.5],[1,0.5]];portConstraint=eastwest;dropTarget=0;fillColor=none;labelBackgroundColor=none;rounded=1;comic=0;backgroundOutline=1;fontFamily=Helvetica;" parent="DpDVmBFBOBijvgF_qr05-228" vertex="1">
                    <mxGeometry y="156" width="256" height="26" as="geometry"/>
                </mxCell>
                <mxCell id="DpDVmBFBOBijvgF_qr05-240" value="" style="shape=partialRectangle;top=0;left=0;bottom=0;align=left;verticalAlign=middle;spacingLeft=4;spacingRight=4;overflow=hidden;rotatable=180;points=[];portConstraint=eastwest;part=1;fillColor=none;labelBackgroundColor=none;rounded=1;comic=0;backgroundOutline=1;fontFamily=Helvetica;" parent="DpDVmBFBOBijvgF_qr05-239" vertex="1" connectable="0">
                    <mxGeometry width="54" height="26" as="geometry"/>
                </mxCell>
                <mxCell id="DpDVmBFBOBijvgF_qr05-241" value="tickets_count" style="shape=partialRectangle;top=0;left=0;right=0;bottom=0;align=left;verticalAlign=top;spacingTop=-2;spacingLeft=64;spacingRight=4;overflow=hidden;rotatable=0;points=[[0,0.5],[1,0.5]];portConstraint=eastwest;dropTarget=0;fillColor=none;labelBackgroundColor=none;rounded=1;comic=0;backgroundOutline=1;fontFamily=Helvetica;" parent="DpDVmBFBOBijvgF_qr05-228" vertex="1">
                    <mxGeometry y="182" width="256" height="26" as="geometry"/>
                </mxCell>
                <mxCell id="DpDVmBFBOBijvgF_qr05-242" value="" style="shape=partialRectangle;top=0;left=0;bottom=0;align=left;verticalAlign=middle;spacingLeft=4;spacingRight=4;overflow=hidden;rotatable=180;points=[];portConstraint=eastwest;part=1;fillColor=none;labelBackgroundColor=none;rounded=1;comic=0;backgroundOutline=1;fontFamily=Helvetica;" parent="DpDVmBFBOBijvgF_qr05-241" vertex="1" connectable="0">
                    <mxGeometry width="54" height="26" as="geometry"/>
                </mxCell>
                <mxCell id="DpDVmBFBOBijvgF_qr05-243" value="ticket_price" style="shape=partialRectangle;top=0;left=0;right=0;bottom=0;align=left;verticalAlign=top;spacingTop=-2;spacingLeft=64;spacingRight=4;overflow=hidden;rotatable=0;points=[[0,0.5],[1,0.5]];portConstraint=eastwest;dropTarget=0;fillColor=none;labelBackgroundColor=none;rounded=1;comic=0;backgroundOutline=1;fontFamily=Helvetica;" parent="DpDVmBFBOBijvgF_qr05-228" vertex="1">
                    <mxGeometry y="208" width="256" height="26" as="geometry"/>
                </mxCell>
                <mxCell id="DpDVmBFBOBijvgF_qr05-244" value="" style="shape=partialRectangle;top=0;left=0;bottom=0;align=left;verticalAlign=middle;spacingLeft=4;spacingRight=4;overflow=hidden;rotatable=180;points=[];portConstraint=eastwest;part=1;fillColor=none;labelBackgroundColor=none;rounded=1;comic=0;backgroundOutline=1;fontFamily=Helvetica;" parent="DpDVmBFBOBijvgF_qr05-243" vertex="1" connectable="0">
                    <mxGeometry width="54" height="26" as="geometry"/>
                </mxCell>
                <mxCell id="DpDVmBFBOBijvgF_qr05-245" value="organiser_id | users(id)" style="shape=partialRectangle;top=0;left=0;right=0;bottom=0;align=left;verticalAlign=top;spacingTop=-2;spacingLeft=64;spacingRight=4;overflow=hidden;rotatable=0;points=[[0,0.5],[1,0.5]];portConstraint=eastwest;dropTarget=0;fillColor=none;labelBackgroundColor=none;rounded=1;comic=0;backgroundOutline=1;fontFamily=Helvetica;" parent="DpDVmBFBOBijvgF_qr05-228" vertex="1">
                    <mxGeometry y="234" width="256" height="26" as="geometry"/>
                </mxCell>
                <mxCell id="DpDVmBFBOBijvgF_qr05-246" value="FK" style="shape=partialRectangle;top=0;left=0;bottom=0;align=left;verticalAlign=middle;spacingLeft=4;spacingRight=4;overflow=hidden;rotatable=180;points=[];portConstraint=eastwest;part=1;fillColor=none;labelBackgroundColor=none;rounded=1;comic=0;backgroundOutline=1;fontFamily=Helvetica;" parent="DpDVmBFBOBijvgF_qr05-245" vertex="1" connectable="0">
                    <mxGeometry width="54" height="26" as="geometry"/>
                </mxCell>
                <mxCell id="DpDVmBFBOBijvgF_qr05-247" value="created_at" style="shape=partialRectangle;top=0;left=0;right=0;bottom=0;align=left;verticalAlign=top;spacingTop=-2;spacingLeft=64;spacingRight=4;overflow=hidden;rotatable=0;points=[[0,0.5],[1,0.5]];portConstraint=eastwest;dropTarget=0;fillColor=none;labelBackgroundColor=none;rounded=1;comic=0;backgroundOutline=1;fontFamily=Helvetica;" parent="DpDVmBFBOBijvgF_qr05-228" vertex="1">
                    <mxGeometry y="260" width="256" height="26" as="geometry"/>
                </mxCell>
                <mxCell id="DpDVmBFBOBijvgF_qr05-248" value="" style="shape=partialRectangle;top=0;left=0;bottom=0;align=left;verticalAlign=middle;spacingLeft=4;spacingRight=4;overflow=hidden;rotatable=180;points=[];portConstraint=eastwest;part=1;fillColor=none;labelBackgroundColor=none;rounded=1;comic=0;backgroundOutline=1;fontFamily=Helvetica;" parent="DpDVmBFBOBijvgF_qr05-247" vertex="1" connectable="0">
                    <mxGeometry width="54" height="26" as="geometry"/>
                </mxCell>
                <mxCell id="DpDVmBFBOBijvgF_qr05-249" value="updated_at" style="shape=partialRectangle;top=0;left=0;right=0;bottom=0;align=left;verticalAlign=top;spacingTop=-2;spacingLeft=64;spacingRight=4;overflow=hidden;rotatable=0;points=[[0,0.5],[1,0.5]];portConstraint=eastwest;dropTarget=0;fillColor=none;labelBackgroundColor=none;rounded=1;comic=0;backgroundOutline=1;fontFamily=Helvetica;" parent="DpDVmBFBOBijvgF_qr05-228" vertex="1">
                    <mxGeometry y="286" width="256" height="26" as="geometry"/>
                </mxCell>
                <mxCell id="DpDVmBFBOBijvgF_qr05-250" value="" style="shape=partialRectangle;top=0;left=0;bottom=0;align=left;verticalAlign=middle;spacingLeft=4;spacingRight=4;overflow=hidden;rotatable=180;points=[];portConstraint=eastwest;part=1;fillColor=none;labelBackgroundColor=none;rounded=1;comic=0;backgroundOutline=1;fontFamily=Helvetica;" parent="DpDVmBFBOBijvgF_qr05-249" vertex="1" connectable="0">
                    <mxGeometry width="54" height="26" as="geometry"/>
                </mxCell>
                <mxCell id="DpDVmBFBOBijvgF_qr05-251" value="tickets" style="swimlane;fontStyle=0;childLayout=stackLayout;horizontal=1;startSize=26;horizontalStack=0;resizeParent=1;resizeLast=0;collapsible=1;marginBottom=0;swimlaneFillColor=none;align=center;fillColor=none;labelBackgroundColor=none;rounded=1;comic=0;backgroundOutline=1;fontFamily=Helvetica;" parent="DpDVmBFBOBijvgF_qr05-599" vertex="1">
                    <mxGeometry x="1130" y="590" width="257" height="208" as="geometry"/>
                </mxCell>
                <mxCell id="DpDVmBFBOBijvgF_qr05-252" value="id" style="shape=partialRectangle;top=0;left=0;right=0;bottom=0;align=left;verticalAlign=top;spacingTop=-2;spacingLeft=64;spacingRight=4;overflow=hidden;rotatable=0;points=[[0,0.5],[1,0.5]];portConstraint=eastwest;dropTarget=0;fillColor=none;labelBackgroundColor=none;rounded=1;comic=0;backgroundOutline=1;fontFamily=Helvetica;" parent="DpDVmBFBOBijvgF_qr05-251" vertex="1">
                    <mxGeometry y="26" width="257" height="26" as="geometry"/>
                </mxCell>
                <mxCell id="DpDVmBFBOBijvgF_qr05-253" value="PK" style="shape=partialRectangle;top=0;left=0;bottom=0;align=left;verticalAlign=middle;spacingLeft=4;spacingRight=4;overflow=hidden;rotatable=180;points=[];portConstraint=eastwest;part=1;fillColor=none;labelBackgroundColor=none;rounded=1;comic=0;backgroundOutline=1;fontFamily=Helvetica;" parent="DpDVmBFBOBijvgF_qr05-252" vertex="1" connectable="0">
                    <mxGeometry width="54" height="26" as="geometry"/>
                </mxCell>
                <mxCell id="DpDVmBFBOBijvgF_qr05-254" value="event_id" style="shape=partialRectangle;top=0;left=0;right=0;bottom=0;align=left;verticalAlign=top;spacingTop=-2;spacingLeft=64;spacingRight=4;overflow=hidden;rotatable=0;points=[[0,0.5],[1,0.5]];portConstraint=eastwest;dropTarget=0;fillColor=none;labelBackgroundColor=none;rounded=1;comic=0;backgroundOutline=1;fontFamily=Helvetica;" parent="DpDVmBFBOBijvgF_qr05-251" vertex="1">
                    <mxGeometry y="52" width="257" height="26" as="geometry"/>
                </mxCell>
                <mxCell id="DpDVmBFBOBijvgF_qr05-255" value="FK" style="shape=partialRectangle;top=0;left=0;bottom=0;align=left;verticalAlign=middle;spacingLeft=4;spacingRight=4;overflow=hidden;rotatable=180;points=[];portConstraint=eastwest;part=1;fillColor=none;labelBackgroundColor=none;rounded=1;comic=0;backgroundOutline=1;fontFamily=Helvetica;" parent="DpDVmBFBOBijvgF_qr05-254" vertex="1" connectable="0">
                    <mxGeometry width="54" height="26" as="geometry"/>
                </mxCell>
                <mxCell id="DpDVmBFBOBijvgF_qr05-256" value="ticket_code" style="shape=partialRectangle;top=0;left=0;right=0;bottom=0;align=left;verticalAlign=top;spacingTop=-2;spacingLeft=64;spacingRight=4;overflow=hidden;rotatable=0;points=[[0,0.5],[1,0.5]];portConstraint=eastwest;dropTarget=0;fillColor=none;labelBackgroundColor=none;rounded=1;comic=0;backgroundOutline=1;fontFamily=Helvetica;" parent="DpDVmBFBOBijvgF_qr05-251" vertex="1">
                    <mxGeometry y="78" width="257" height="26" as="geometry"/>
                </mxCell>
                <mxCell id="DpDVmBFBOBijvgF_qr05-257" value="" style="shape=partialRectangle;top=0;left=0;bottom=0;align=left;verticalAlign=middle;spacingLeft=4;spacingRight=4;overflow=hidden;rotatable=180;points=[];portConstraint=eastwest;part=1;fillColor=none;labelBackgroundColor=none;rounded=1;comic=0;backgroundOutline=1;fontFamily=Helvetica;" parent="DpDVmBFBOBijvgF_qr05-256" vertex="1" connectable="0">
                    <mxGeometry width="54" height="26" as="geometry"/>
                </mxCell>
                <mxCell id="DpDVmBFBOBijvgF_qr05-258" value="seat_number" style="shape=partialRectangle;top=0;left=0;right=0;bottom=0;align=left;verticalAlign=top;spacingTop=-2;spacingLeft=64;spacingRight=4;overflow=hidden;rotatable=0;points=[[0,0.5],[1,0.5]];portConstraint=eastwest;dropTarget=0;fillColor=none;labelBackgroundColor=none;rounded=1;comic=0;backgroundOutline=1;fontFamily=Helvetica;" parent="DpDVmBFBOBijvgF_qr05-251" vertex="1">
                    <mxGeometry y="104" width="257" height="26" as="geometry"/>
                </mxCell>
                <mxCell id="DpDVmBFBOBijvgF_qr05-259" value="" style="shape=partialRectangle;top=0;left=0;bottom=0;align=left;verticalAlign=middle;spacingLeft=4;spacingRight=4;overflow=hidden;rotatable=180;points=[];portConstraint=eastwest;part=1;fillColor=none;labelBackgroundColor=none;rounded=1;comic=0;backgroundOutline=1;fontFamily=Helvetica;" parent="DpDVmBFBOBijvgF_qr05-258" vertex="1" connectable="0">
                    <mxGeometry width="54" height="26" as="geometry"/>
                </mxCell>
                <mxCell id="DpDVmBFBOBijvgF_qr05-260" value="attendee_id | users(id)" style="shape=partialRectangle;top=0;left=0;right=0;bottom=0;align=left;verticalAlign=top;spacingTop=-2;spacingLeft=64;spacingRight=4;overflow=hidden;rotatable=0;points=[[0,0.5],[1,0.5]];portConstraint=eastwest;dropTarget=0;fillColor=none;labelBackgroundColor=none;rounded=1;comic=0;backgroundOutline=1;fontFamily=Helvetica;" parent="DpDVmBFBOBijvgF_qr05-251" vertex="1">
                    <mxGeometry y="130" width="257" height="26" as="geometry"/>
                </mxCell>
                <mxCell id="DpDVmBFBOBijvgF_qr05-261" value="FK" style="shape=partialRectangle;top=0;left=0;bottom=0;align=left;verticalAlign=middle;spacingLeft=4;spacingRight=4;overflow=hidden;rotatable=180;points=[];portConstraint=eastwest;part=1;fillColor=none;labelBackgroundColor=none;rounded=1;comic=0;backgroundOutline=1;fontFamily=Helvetica;" parent="DpDVmBFBOBijvgF_qr05-260" vertex="1" connectable="0">
                    <mxGeometry width="54" height="26" as="geometry"/>
                </mxCell>
                <mxCell id="DpDVmBFBOBijvgF_qr05-262" value="created_at" style="shape=partialRectangle;top=0;left=0;right=0;bottom=0;align=left;verticalAlign=top;spacingTop=-2;spacingLeft=64;spacingRight=4;overflow=hidden;rotatable=0;points=[[0,0.5],[1,0.5]];portConstraint=eastwest;dropTarget=0;fillColor=none;labelBackgroundColor=none;rounded=1;comic=0;backgroundOutline=1;fontFamily=Helvetica;" parent="DpDVmBFBOBijvgF_qr05-251" vertex="1">
                    <mxGeometry y="156" width="257" height="26" as="geometry"/>
                </mxCell>
                <mxCell id="DpDVmBFBOBijvgF_qr05-263" value="" style="shape=partialRectangle;top=0;left=0;bottom=0;align=left;verticalAlign=middle;spacingLeft=4;spacingRight=4;overflow=hidden;rotatable=180;points=[];portConstraint=eastwest;part=1;fillColor=none;labelBackgroundColor=none;rounded=1;comic=0;backgroundOutline=1;fontFamily=Helvetica;" parent="DpDVmBFBOBijvgF_qr05-262" vertex="1" connectable="0">
                    <mxGeometry width="54" height="26" as="geometry"/>
                </mxCell>
                <mxCell id="DpDVmBFBOBijvgF_qr05-264" value="updated_at" style="shape=partialRectangle;top=0;left=0;right=0;bottom=0;align=left;verticalAlign=top;spacingTop=-2;spacingLeft=64;spacingRight=4;overflow=hidden;rotatable=0;points=[[0,0.5],[1,0.5]];portConstraint=eastwest;dropTarget=0;fillColor=none;labelBackgroundColor=none;rounded=1;comic=0;backgroundOutline=1;fontFamily=Helvetica;" parent="DpDVmBFBOBijvgF_qr05-251" vertex="1">
                    <mxGeometry y="182" width="257" height="26" as="geometry"/>
                </mxCell>
                <mxCell id="DpDVmBFBOBijvgF_qr05-265" value="" style="shape=partialRectangle;top=0;left=0;bottom=0;align=left;verticalAlign=middle;spacingLeft=4;spacingRight=4;overflow=hidden;rotatable=180;points=[];portConstraint=eastwest;part=1;fillColor=none;labelBackgroundColor=none;rounded=1;comic=0;backgroundOutline=1;fontFamily=Helvetica;" parent="DpDVmBFBOBijvgF_qr05-264" vertex="1" connectable="0">
                    <mxGeometry width="54" height="26" as="geometry"/>
                </mxCell>
                <mxCell id="DpDVmBFBOBijvgF_qr05-266" value="orders" style="swimlane;fontStyle=0;childLayout=stackLayout;horizontal=1;startSize=26;horizontalStack=0;resizeParent=1;resizeLast=0;collapsible=1;marginBottom=0;swimlaneFillColor=none;align=center;fillColor=none;labelBackgroundColor=none;rounded=1;comic=0;backgroundOutline=1;fontFamily=Helvetica;" parent="DpDVmBFBOBijvgF_qr05-599" vertex="1">
                    <mxGeometry x="573" y="360" width="256" height="182" as="geometry"/>
                </mxCell>
                <mxCell id="DpDVmBFBOBijvgF_qr05-267" value="id" style="shape=partialRectangle;top=0;left=0;right=0;bottom=0;align=left;verticalAlign=top;spacingTop=-2;spacingLeft=64;spacingRight=4;overflow=hidden;rotatable=0;points=[[0,0.5],[1,0.5]];portConstraint=eastwest;dropTarget=0;fillColor=none;labelBackgroundColor=none;rounded=1;comic=0;backgroundOutline=1;fontFamily=Helvetica;" parent="DpDVmBFBOBijvgF_qr05-266" vertex="1">
                    <mxGeometry y="26" width="256" height="26" as="geometry"/>
                </mxCell>
                <mxCell id="DpDVmBFBOBijvgF_qr05-268" value="PK" style="shape=partialRectangle;top=0;left=0;bottom=0;align=left;verticalAlign=middle;spacingLeft=4;spacingRight=4;overflow=hidden;rotatable=180;points=[];portConstraint=eastwest;part=1;fillColor=none;labelBackgroundColor=none;rounded=1;comic=0;backgroundOutline=1;fontFamily=Helvetica;" parent="DpDVmBFBOBijvgF_qr05-267" vertex="1" connectable="0">
                    <mxGeometry width="54" height="26" as="geometry"/>
                </mxCell>
                <mxCell id="DpDVmBFBOBijvgF_qr05-269" value="total" style="shape=partialRectangle;top=0;left=0;right=0;bottom=0;align=left;verticalAlign=top;spacingTop=-2;spacingLeft=64;spacingRight=4;overflow=hidden;rotatable=0;points=[[0,0.5],[1,0.5]];portConstraint=eastwest;dropTarget=0;fillColor=none;labelBackgroundColor=none;rounded=1;comic=0;backgroundOutline=1;fontFamily=Helvetica;" parent="DpDVmBFBOBijvgF_qr05-266" vertex="1">
                    <mxGeometry y="52" width="256" height="26" as="geometry"/>
                </mxCell>
                <mxCell id="DpDVmBFBOBijvgF_qr05-270" value="" style="shape=partialRectangle;top=0;left=0;bottom=0;align=left;verticalAlign=middle;spacingLeft=4;spacingRight=4;overflow=hidden;rotatable=180;points=[];portConstraint=eastwest;part=1;fillColor=none;labelBackgroundColor=none;rounded=1;comic=0;backgroundOutline=1;fontFamily=Helvetica;" parent="DpDVmBFBOBijvgF_qr05-269" vertex="1" connectable="0">
                    <mxGeometry width="54" height="26" as="geometry"/>
                </mxCell>
                <mxCell id="DpDVmBFBOBijvgF_qr05-271" value="payment_method" style="shape=partialRectangle;top=0;left=0;right=0;bottom=0;align=left;verticalAlign=top;spacingTop=-2;spacingLeft=64;spacingRight=4;overflow=hidden;rotatable=0;points=[[0,0.5],[1,0.5]];portConstraint=eastwest;dropTarget=0;fillColor=none;labelBackgroundColor=none;rounded=1;comic=0;backgroundOutline=1;fontFamily=Helvetica;" parent="DpDVmBFBOBijvgF_qr05-266" vertex="1">
                    <mxGeometry y="78" width="256" height="26" as="geometry"/>
                </mxCell>
                <mxCell id="DpDVmBFBOBijvgF_qr05-272" value="" style="shape=partialRectangle;top=0;left=0;bottom=0;align=left;verticalAlign=middle;spacingLeft=4;spacingRight=4;overflow=hidden;rotatable=180;points=[];portConstraint=eastwest;part=1;fillColor=none;labelBackgroundColor=none;rounded=1;comic=0;backgroundOutline=1;fontFamily=Helvetica;" parent="DpDVmBFBOBijvgF_qr05-271" vertex="1" connectable="0">
                    <mxGeometry width="54" height="26" as="geometry"/>
                </mxCell>
                <mxCell id="DpDVmBFBOBijvgF_qr05-273" value="user_id" style="shape=partialRectangle;top=0;left=0;right=0;bottom=0;align=left;verticalAlign=top;spacingTop=-2;spacingLeft=64;spacingRight=4;overflow=hidden;rotatable=0;points=[[0,0.5],[1,0.5]];portConstraint=eastwest;dropTarget=0;fillColor=none;labelBackgroundColor=none;rounded=1;comic=0;backgroundOutline=1;fontFamily=Helvetica;" parent="DpDVmBFBOBijvgF_qr05-266" vertex="1">
                    <mxGeometry y="104" width="256" height="26" as="geometry"/>
                </mxCell>
                <mxCell id="DpDVmBFBOBijvgF_qr05-274" value="FK" style="shape=partialRectangle;top=0;left=0;bottom=0;align=left;verticalAlign=middle;spacingLeft=4;spacingRight=4;overflow=hidden;rotatable=180;points=[];portConstraint=eastwest;part=1;fillColor=none;labelBackgroundColor=none;rounded=1;comic=0;backgroundOutline=1;fontFamily=Helvetica;" parent="DpDVmBFBOBijvgF_qr05-273" vertex="1" connectable="0">
                    <mxGeometry width="54" height="26" as="geometry"/>
                </mxCell>
                <mxCell id="DpDVmBFBOBijvgF_qr05-275" value="created_at" style="shape=partialRectangle;top=0;left=0;right=0;bottom=0;align=left;verticalAlign=top;spacingTop=-2;spacingLeft=64;spacingRight=4;overflow=hidden;rotatable=0;points=[[0,0.5],[1,0.5]];portConstraint=eastwest;dropTarget=0;fillColor=none;labelBackgroundColor=none;rounded=1;comic=0;backgroundOutline=1;fontFamily=Helvetica;" parent="DpDVmBFBOBijvgF_qr05-266" vertex="1">
                    <mxGeometry y="130" width="256" height="26" as="geometry"/>
                </mxCell>
                <mxCell id="DpDVmBFBOBijvgF_qr05-276" value="" style="shape=partialRectangle;top=0;left=0;bottom=0;align=left;verticalAlign=middle;spacingLeft=4;spacingRight=4;overflow=hidden;rotatable=180;points=[];portConstraint=eastwest;part=1;fillColor=none;labelBackgroundColor=none;rounded=1;comic=0;backgroundOutline=1;fontFamily=Helvetica;" parent="DpDVmBFBOBijvgF_qr05-275" vertex="1" connectable="0">
                    <mxGeometry width="54" height="26" as="geometry"/>
                </mxCell>
                <mxCell id="DpDVmBFBOBijvgF_qr05-277" value="updated_at" style="shape=partialRectangle;top=0;left=0;right=0;bottom=0;align=left;verticalAlign=top;spacingTop=-2;spacingLeft=64;spacingRight=4;overflow=hidden;rotatable=0;points=[[0,0.5],[1,0.5]];portConstraint=eastwest;dropTarget=0;fillColor=none;labelBackgroundColor=none;rounded=1;comic=0;backgroundOutline=1;fontFamily=Helvetica;" parent="DpDVmBFBOBijvgF_qr05-266" vertex="1">
                    <mxGeometry y="156" width="256" height="26" as="geometry"/>
                </mxCell>
                <mxCell id="DpDVmBFBOBijvgF_qr05-278" value="" style="shape=partialRectangle;top=0;left=0;bottom=0;align=left;verticalAlign=middle;spacingLeft=4;spacingRight=4;overflow=hidden;rotatable=180;points=[];portConstraint=eastwest;part=1;fillColor=none;labelBackgroundColor=none;rounded=1;comic=0;backgroundOutline=1;fontFamily=Helvetica;" parent="DpDVmBFBOBijvgF_qr05-277" vertex="1" connectable="0">
                    <mxGeometry width="54" height="26" as="geometry"/>
                </mxCell>
                <mxCell id="DpDVmBFBOBijvgF_qr05-293" style="edgeStyle=orthogonalEdgeStyle;rounded=1;orthogonalLoop=1;jettySize=auto;html=1;exitX=0;exitY=0.5;exitDx=0;exitDy=0;entryX=0;entryY=0.5;entryDx=0;entryDy=0;endArrow=ERmany;endFill=0;labelBackgroundColor=none;fontColor=default;comic=0;backgroundOutline=1;fontFamily=Helvetica;" parent="DpDVmBFBOBijvgF_qr05-599" source="DpDVmBFBOBijvgF_qr05-214" target="DpDVmBFBOBijvgF_qr05-245" edge="1">
                    <mxGeometry relative="1" as="geometry">
                        <Array as="points">
                            <mxPoint y="40"/>
                            <mxPoint y="447"/>
                        </Array>
                    </mxGeometry>
                </mxCell>
                <mxCell id="DpDVmBFBOBijvgF_qr05-295" style="edgeStyle=orthogonalEdgeStyle;rounded=1;orthogonalLoop=1;jettySize=auto;html=1;entryX=0;entryY=0.5;entryDx=0;entryDy=0;endArrow=ERmany;endFill=0;labelBackgroundColor=none;fontColor=default;comic=0;backgroundOutline=1;fontFamily=Helvetica;" parent="DpDVmBFBOBijvgF_qr05-599" source="DpDVmBFBOBijvgF_qr05-229" target="DpDVmBFBOBijvgF_qr05-254" edge="1">
                    <mxGeometry relative="1" as="geometry">
                        <Array as="points">
                            <mxPoint y="239"/>
                            <mxPoint y="655"/>
                        </Array>
                    </mxGeometry>
                </mxCell>
                <mxCell id="DpDVmBFBOBijvgF_qr05-296" style="edgeStyle=orthogonalEdgeStyle;rounded=1;orthogonalLoop=1;jettySize=auto;html=1;endArrow=ERzeroToMany;endFill=0;entryX=0;entryY=0.385;entryDx=0;entryDy=0;entryPerimeter=0;labelBackgroundColor=none;fontColor=default;comic=0;backgroundOutline=1;fontFamily=Helvetica;" parent="DpDVmBFBOBijvgF_qr05-599" source="DpDVmBFBOBijvgF_qr05-214" target="DpDVmBFBOBijvgF_qr05-260" edge="1">
                    <mxGeometry relative="1" as="geometry">
                        <mxPoint x="1070" y="730" as="targetPoint"/>
                        <Array as="points">
                            <mxPoint y="39"/>
                            <mxPoint y="730"/>
                        </Array>
                    </mxGeometry>
                </mxCell>
                <mxCell id="DpDVmBFBOBijvgF_qr05-297" style="edgeStyle=orthogonalEdgeStyle;rounded=1;orthogonalLoop=1;jettySize=auto;html=1;entryX=0;entryY=0.5;entryDx=0;entryDy=0;endArrow=ERmany;endFill=0;fillColor=none;labelBackgroundColor=none;fontColor=default;comic=0;backgroundOutline=1;fontFamily=Helvetica;" parent="DpDVmBFBOBijvgF_qr05-599" source="DpDVmBFBOBijvgF_qr05-214" target="DpDVmBFBOBijvgF_qr05-273" edge="1">
                    <mxGeometry relative="1" as="geometry">
                        <Array as="points">
                            <mxPoint x="520" y="39"/>
                            <mxPoint x="520" y="477"/>
                        </Array>
                    </mxGeometry>
                </mxCell>
                <mxCell id="DpDVmBFBOBijvgF_qr05-299" value="" style="edgeStyle=orthogonalEdgeStyle;fontSize=12;html=1;endArrow=ERmany;startArrow=ERmany;rounded=1;entryX=0;entryY=0.5;entryDx=0;entryDy=0;exitX=0;exitY=0.5;exitDx=0;exitDy=0;fillColor=none;labelBackgroundColor=none;fontColor=default;comic=0;backgroundOutline=1;fontFamily=Helvetica;" parent="DpDVmBFBOBijvgF_qr05-599" source="DpDVmBFBOBijvgF_qr05-252" target="DpDVmBFBOBijvgF_qr05-267" edge="1">
                    <mxGeometry width="100" height="100" relative="1" as="geometry">
                        <mxPoint x="820" y="630" as="sourcePoint"/>
                        <mxPoint x="470" y="330" as="targetPoint"/>
                        <Array as="points">
                            <mxPoint x="970" y="629"/>
                            <mxPoint x="520" y="630"/>
                            <mxPoint x="520" y="399"/>
                        </Array>
                    </mxGeometry>
                </mxCell>
                <mxCell id="DpDVmBFBOBijvgF_qr05-693" value="" style="group;rounded=1;comic=0;" parent="DpDVmBFBOBijvgF_qr05-694" vertex="1" connectable="0">
                    <mxGeometry y="90" width="1626" height="3593.75" as="geometry"/>
                </mxCell>
                <mxCell id="DpDVmBFBOBijvgF_qr05-597" value="" style="group;comic=0;backgroundOutline=1;fontFamily=Helvetica;labelBackgroundColor=none;rounded=1;" parent="DpDVmBFBOBijvgF_qr05-693" vertex="1" connectable="0">
                    <mxGeometry x="1226" width="400" height="1620" as="geometry"/>
                </mxCell>
                <mxCell id="MVl43ReA70MVfQG40Yfd-35" value="Enter Required Data" style="html=1;overflow=block;blockSpacing=1;whiteSpace=wrap;shape=parallelogram;perimeter=parallelogramPerimeter;anchorPointDirection=0;fontSize=16.7;spacing=3.8;strokeOpacity=100;rounded=1;absoluteArcSize=1;arcSize=9;fillColor=none;strokeWidth=NaN;lucidId=u38RXCvvejcP;labelBackgroundColor=none;comic=0;backgroundOutline=1;fontFamily=Helvetica;" parent="DpDVmBFBOBijvgF_qr05-597" vertex="1">
                    <mxGeometry y="216" width="210" height="90" as="geometry"/>
                </mxCell>
                <mxCell id="MVl43ReA70MVfQG40Yfd-36" value="Verify Data" style="html=1;overflow=block;blockSpacing=1;whiteSpace=wrap;fontSize=16.7;spacing=9;strokeOpacity=100;rounded=1;absoluteArcSize=1;arcSize=9;fillColor=none;strokeWidth=NaN;lucidId=138RP~FEgDZ3;labelBackgroundColor=none;comic=0;backgroundOutline=1;fontFamily=Helvetica;" parent="DpDVmBFBOBijvgF_qr05-597" vertex="1">
                    <mxGeometry x="45" y="388" width="120" height="90" as="geometry"/>
                </mxCell>
                <mxCell id="MVl43ReA70MVfQG40Yfd-37" value="email exists?" style="html=1;overflow=block;blockSpacing=1;whiteSpace=wrap;rhombus;fontSize=16.7;spacing=3.8;strokeOpacity=100;rounded=1;absoluteArcSize=1;arcSize=9;fillColor=none;strokeWidth=NaN;lucidId=We9Rox2K-z.9;labelBackgroundColor=none;comic=0;backgroundOutline=1;fontFamily=Helvetica;" parent="DpDVmBFBOBijvgF_qr05-597" vertex="1">
                    <mxGeometry x="45" y="559.5" width="120" height="105" as="geometry"/>
                </mxCell>
                <mxCell id="MVl43ReA70MVfQG40Yfd-38" value="print &quot;email exists&quot;" style="html=1;overflow=block;blockSpacing=1;whiteSpace=wrap;fontSize=16.7;spacing=9;strokeOpacity=100;rounded=1;absoluteArcSize=1;arcSize=9;fillColor=none;strokeWidth=NaN;lucidId=Sf9RD0ZX_Uis;labelBackgroundColor=none;comic=0;backgroundOutline=1;fontFamily=Helvetica;glass=0;" parent="DpDVmBFBOBijvgF_qr05-597" vertex="1">
                    <mxGeometry x="233" y="559.5" width="120" height="90" as="geometry"/>
                </mxCell>
                <mxCell id="MVl43ReA70MVfQG40Yfd-39" value="email valid?" style="html=1;overflow=block;blockSpacing=1;whiteSpace=wrap;rhombus;fontSize=16.7;spacing=3.8;strokeOpacity=100;rounded=1;absoluteArcSize=1;arcSize=9;fillColor=none;strokeWidth=NaN;lucidId=zg9RxlIquufi;labelBackgroundColor=none;comic=0;backgroundOutline=1;fontFamily=Helvetica;" parent="DpDVmBFBOBijvgF_qr05-597" vertex="1">
                    <mxGeometry x="46" y="750" width="120" height="105" as="geometry"/>
                </mxCell>
                <mxCell id="MVl43ReA70MVfQG40Yfd-40" value="print &quot;email invalid&quot;" style="html=1;overflow=block;blockSpacing=1;whiteSpace=wrap;fontSize=16.7;spacing=9;strokeOpacity=100;rounded=1;absoluteArcSize=1;arcSize=9;fillColor=none;strokeWidth=NaN;lucidId=2g9R7ejxV~j1;labelBackgroundColor=none;comic=0;backgroundOutline=1;fontFamily=Helvetica;" parent="DpDVmBFBOBijvgF_qr05-597" vertex="1">
                    <mxGeometry x="233" y="745.5" width="120" height="90" as="geometry"/>
                </mxCell>
                <mxCell id="MVl43ReA70MVfQG40Yfd-41" value="password follows regex?" style="html=1;overflow=block;blockSpacing=1;whiteSpace=wrap;rhombus;fontSize=16.7;spacing=3.8;strokeOpacity=100;rounded=1;absoluteArcSize=1;arcSize=9;fillColor=none;strokeWidth=NaN;lucidId=Ch9RPKJA7zPK;labelBackgroundColor=none;comic=0;backgroundOutline=1;fontFamily=Helvetica;" parent="DpDVmBFBOBijvgF_qr05-597" vertex="1">
                    <mxGeometry x="23" y="949" width="165" height="135" as="geometry"/>
                </mxCell>
                <mxCell id="MVl43ReA70MVfQG40Yfd-42" value="name characters count &amp;lt;255?" style="html=1;overflow=block;blockSpacing=1;whiteSpace=wrap;rhombus;fontSize=16.7;spacing=3.8;strokeOpacity=100;rounded=1;absoluteArcSize=1;arcSize=9;fillColor=none;strokeWidth=NaN;lucidId=.h9RKhbQe4al;labelBackgroundColor=none;comic=0;backgroundOutline=1;fontFamily=Helvetica;" parent="DpDVmBFBOBijvgF_qr05-597" vertex="1">
                    <mxGeometry x="22.5" y="1172" width="165" height="135" as="geometry"/>
                </mxCell>
                <mxCell id="MVl43ReA70MVfQG40Yfd-43" value="print &quot;invalid password! password must be following regex&quot; " style="html=1;overflow=block;blockSpacing=1;whiteSpace=wrap;fontSize=16.7;spacing=9;strokeOpacity=100;rounded=1;absoluteArcSize=1;arcSize=9;fillColor=none;strokeWidth=NaN;lucidId=ii9RvrFXR55o;labelBackgroundColor=none;comic=0;backgroundOutline=1;fontFamily=Helvetica;" parent="DpDVmBFBOBijvgF_qr05-597" vertex="1">
                    <mxGeometry x="233" y="924.5" width="120" height="159" as="geometry"/>
                </mxCell>
                <mxCell id="MVl43ReA70MVfQG40Yfd-44" value="print &quot;name is too long&quot;" style="html=1;overflow=block;blockSpacing=1;whiteSpace=wrap;fontSize=16.7;spacing=9;strokeOpacity=100;rounded=1;absoluteArcSize=1;arcSize=9;fillColor=none;strokeWidth=NaN;lucidId=dl9RV6K8R-yt;labelBackgroundColor=none;comic=0;backgroundOutline=1;fontFamily=Helvetica;" parent="DpDVmBFBOBijvgF_qr05-597" vertex="1">
                    <mxGeometry x="233" y="1187.5" width="120" height="90" as="geometry"/>
                </mxCell>
                <mxCell id="MVl43ReA70MVfQG40Yfd-45" value="Send Verfifcation email" style="html=1;overflow=block;blockSpacing=1;whiteSpace=wrap;fontSize=16.7;spacing=9;strokeOpacity=100;rounded=1;absoluteArcSize=1;arcSize=9;fillColor=none;strokeWidth=NaN;lucidId=Pm9R~dmn5SXY;labelBackgroundColor=none;comic=0;backgroundOutline=1;fontFamily=Helvetica;" parent="DpDVmBFBOBijvgF_qr05-597" vertex="1">
                    <mxGeometry x="45.5" y="1389" width="120" height="90" as="geometry"/>
                </mxCell>
                <mxCell id="MVl43ReA70MVfQG40Yfd-47" value="Register" style="html=1;overflow=block;blockSpacing=1;whiteSpace=wrap;fontSize=16.7;spacing=0;strokeOpacity=100;rounded=1;absoluteArcSize=1;arcSize=9;fillColor=none;strokeWidth=NaN;lucidId=9r9RlZHnXtn6;strokeColor=none;labelBackgroundColor=none;comic=0;backgroundOutline=1;fontFamily=Helvetica;" parent="DpDVmBFBOBijvgF_qr05-597" vertex="1">
                    <mxGeometry x="23" width="180" height="45" as="geometry"/>
                </mxCell>
                <mxCell id="MVl43ReA70MVfQG40Yfd-48" value="" style="html=1;jettySize=18;whiteSpace=wrap;fontSize=13;strokeOpacity=100;strokeWidth=0.8;rounded=1;arcSize=12;edgeStyle=orthogonalEdgeStyle;jumpStyle=arc;startArrow=none;endArrow=block;endFill=1;exitX=0.5;exitY=1;exitPerimeter=0;entryX=0.5;entryY=0;entryPerimeter=0;lucidId=D38RGu5PEYmI;fontColor=default;labelBackgroundColor=none;comic=0;backgroundOutline=1;fontFamily=Helvetica;" parent="DpDVmBFBOBijvgF_qr05-597" target="MVl43ReA70MVfQG40Yfd-35" edge="1">
                    <mxGeometry width="100" height="100" relative="1" as="geometry">
                        <Array as="points"/>
                        <mxPoint x="105" y="140" as="sourcePoint"/>
                    </mxGeometry>
                </mxCell>
                <mxCell id="MVl43ReA70MVfQG40Yfd-49" value="" style="html=1;jettySize=18;whiteSpace=wrap;fontSize=13;strokeOpacity=100;strokeWidth=0.8;rounded=1;arcSize=12;edgeStyle=orthogonalEdgeStyle;jumpStyle=arc;startArrow=none;endArrow=block;endFill=1;exitX=0.5;exitY=1;exitPerimeter=0;entryX=0.5;entryY=0;entryPerimeter=0;lucidId=X38Rm1n..i-t;fontColor=default;labelBackgroundColor=none;comic=0;backgroundOutline=1;fontFamily=Helvetica;" parent="DpDVmBFBOBijvgF_qr05-597" source="MVl43ReA70MVfQG40Yfd-35" target="MVl43ReA70MVfQG40Yfd-36" edge="1">
                    <mxGeometry width="100" height="100" relative="1" as="geometry">
                        <Array as="points"/>
                    </mxGeometry>
                </mxCell>
                <mxCell id="MVl43ReA70MVfQG40Yfd-50" value="" style="html=1;jettySize=18;whiteSpace=wrap;fontSize=13;strokeOpacity=100;strokeWidth=0.8;rounded=1;arcSize=12;edgeStyle=orthogonalEdgeStyle;jumpStyle=arc;startArrow=none;endArrow=block;endFill=1;exitX=0.5;exitY=1;exitPerimeter=0;entryX=0.5;entryY=0;entryPerimeter=0;lucidId=Se9RFyMb44C6;fontColor=default;labelBackgroundColor=none;comic=0;backgroundOutline=1;fontFamily=Helvetica;" parent="DpDVmBFBOBijvgF_qr05-597" source="MVl43ReA70MVfQG40Yfd-36" target="MVl43ReA70MVfQG40Yfd-37" edge="1">
                    <mxGeometry width="100" height="100" relative="1" as="geometry">
                        <Array as="points"/>
                    </mxGeometry>
                </mxCell>
                <mxCell id="MVl43ReA70MVfQG40Yfd-51" value="" style="html=1;jettySize=18;whiteSpace=wrap;fontSize=13.3;fontColor=default;fontStyle=1;strokeOpacity=100;strokeWidth=0.8;rounded=1;arcSize=12;edgeStyle=orthogonalEdgeStyle;jumpStyle=arc;startArrow=none;endArrow=block;endFill=1;exitX=1;exitY=0.5;exitPerimeter=0;entryX=0;entryY=0.5;entryPerimeter=0;lucidId=~e9RY_-3bHy.;labelBackgroundColor=none;comic=0;backgroundOutline=1;fontFamily=Helvetica;" parent="DpDVmBFBOBijvgF_qr05-597" source="MVl43ReA70MVfQG40Yfd-37" target="MVl43ReA70MVfQG40Yfd-38" edge="1">
                    <mxGeometry width="100" height="100" relative="1" as="geometry">
                        <Array as="points"/>
                    </mxGeometry>
                </mxCell>
                <mxCell id="MVl43ReA70MVfQG40Yfd-52" value="Yes" style="text;html=1;resizable=0;labelBackgroundColor=default;align=center;verticalAlign=middle;fontStyle=1;fontSize=13.3;rounded=1;comic=0;backgroundOutline=1;fontFamily=Helvetica;" parent="MVl43ReA70MVfQG40Yfd-51" vertex="1">
                    <mxGeometry relative="1" as="geometry"/>
                </mxCell>
                <mxCell id="MVl43ReA70MVfQG40Yfd-53" value="" style="html=1;jettySize=18;whiteSpace=wrap;fontSize=13;strokeOpacity=100;strokeWidth=0.8;rounded=1;arcSize=12;edgeStyle=orthogonalEdgeStyle;jumpStyle=arc;startArrow=none;endArrow=block;endFill=1;exitX=1;exitY=0.5;exitPerimeter=0;entryX=0.9;entryY=0.5;entryPerimeter=0;lucidId=mg9R_LNgXqrU;fontColor=default;labelBackgroundColor=none;comic=0;backgroundOutline=1;fontFamily=Helvetica;" parent="DpDVmBFBOBijvgF_qr05-597" source="MVl43ReA70MVfQG40Yfd-38" target="MVl43ReA70MVfQG40Yfd-35" edge="1">
                    <mxGeometry width="100" height="100" relative="1" as="geometry">
                        <Array as="points">
                            <mxPoint x="353" y="612"/>
                            <mxPoint x="400" y="612"/>
                            <mxPoint x="400" y="261"/>
                        </Array>
                    </mxGeometry>
                </mxCell>
                <mxCell id="MVl43ReA70MVfQG40Yfd-54" value="" style="html=1;jettySize=18;whiteSpace=wrap;fontSize=13.3;fontColor=default;fontStyle=1;strokeOpacity=100;strokeWidth=0.8;rounded=1;arcSize=12;edgeStyle=orthogonalEdgeStyle;jumpStyle=arc;startArrow=none;endArrow=block;endFill=1;exitX=0.5;exitY=1;exitPerimeter=0;entryX=0.5;entryY=0;entryPerimeter=0;lucidId=vg9Rl0savhOg;labelBackgroundColor=none;comic=0;backgroundOutline=1;fontFamily=Helvetica;" parent="DpDVmBFBOBijvgF_qr05-597" source="MVl43ReA70MVfQG40Yfd-37" target="MVl43ReA70MVfQG40Yfd-39" edge="1">
                    <mxGeometry width="100" height="100" relative="1" as="geometry">
                        <Array as="points"/>
                    </mxGeometry>
                </mxCell>
                <mxCell id="MVl43ReA70MVfQG40Yfd-55" value="No" style="text;html=1;resizable=0;labelBackgroundColor=default;align=center;verticalAlign=middle;fontStyle=1;fontSize=13.3;rounded=1;comic=0;backgroundOutline=1;fontFamily=Helvetica;" parent="MVl43ReA70MVfQG40Yfd-54" vertex="1">
                    <mxGeometry relative="1" as="geometry"/>
                </mxCell>
                <mxCell id="MVl43ReA70MVfQG40Yfd-56" value="" style="html=1;jettySize=18;whiteSpace=wrap;fontSize=13.3;fontColor=default;fontStyle=1;strokeOpacity=100;strokeWidth=0.8;rounded=1;arcSize=12;edgeStyle=orthogonalEdgeStyle;jumpStyle=arc;startArrow=none;endArrow=block;endFill=1;exitX=0.5;exitY=1;exitPerimeter=0;entryX=0.5;entryY=0;entryPerimeter=0;lucidId=Og9RHu0xaFYj;labelBackgroundColor=none;comic=0;backgroundOutline=1;fontFamily=Helvetica;" parent="DpDVmBFBOBijvgF_qr05-597" source="MVl43ReA70MVfQG40Yfd-39" target="MVl43ReA70MVfQG40Yfd-41" edge="1">
                    <mxGeometry width="100" height="100" relative="1" as="geometry">
                        <Array as="points"/>
                    </mxGeometry>
                </mxCell>
                <mxCell id="MVl43ReA70MVfQG40Yfd-57" value="Yes" style="text;html=1;resizable=0;labelBackgroundColor=default;align=center;verticalAlign=middle;fontStyle=1;fontSize=13.3;rounded=1;comic=0;backgroundOutline=1;fontFamily=Helvetica;" parent="MVl43ReA70MVfQG40Yfd-56" vertex="1">
                    <mxGeometry relative="1" as="geometry"/>
                </mxCell>
                <mxCell id="MVl43ReA70MVfQG40Yfd-58" value="" style="html=1;jettySize=18;whiteSpace=wrap;fontSize=13.3;fontColor=default;fontStyle=1;strokeOpacity=100;strokeWidth=0.8;rounded=1;arcSize=12;edgeStyle=orthogonalEdgeStyle;jumpStyle=arc;startArrow=none;endArrow=block;endFill=1;exitX=1;exitY=0.5;exitPerimeter=0;entryX=0;entryY=0.5;entryPerimeter=0;lucidId=Rg9RbGqZcBvq;labelBackgroundColor=none;comic=0;backgroundOutline=1;fontFamily=Helvetica;" parent="DpDVmBFBOBijvgF_qr05-597" source="MVl43ReA70MVfQG40Yfd-39" target="MVl43ReA70MVfQG40Yfd-40" edge="1">
                    <mxGeometry width="100" height="100" relative="1" as="geometry">
                        <Array as="points"/>
                    </mxGeometry>
                </mxCell>
                <mxCell id="MVl43ReA70MVfQG40Yfd-59" value="No" style="text;html=1;resizable=0;labelBackgroundColor=default;align=center;verticalAlign=middle;fontStyle=1;fontSize=13.3;rounded=1;comic=0;backgroundOutline=1;fontFamily=Helvetica;" parent="MVl43ReA70MVfQG40Yfd-58" vertex="1">
                    <mxGeometry relative="1" as="geometry"/>
                </mxCell>
                <mxCell id="MVl43ReA70MVfQG40Yfd-60" value="" style="html=1;jettySize=18;whiteSpace=wrap;fontSize=13.3;fontColor=default;fontStyle=1;strokeOpacity=100;strokeWidth=0.8;rounded=1;arcSize=12;edgeStyle=orthogonalEdgeStyle;jumpStyle=arc;startArrow=none;endArrow=block;endFill=1;exitX=0.5;exitY=1;exitPerimeter=0;entryX=0.5;entryY=0;entryPerimeter=0;lucidId=.h9RImOp.d5M;labelBackgroundColor=none;comic=0;backgroundOutline=1;fontFamily=Helvetica;" parent="DpDVmBFBOBijvgF_qr05-597" source="MVl43ReA70MVfQG40Yfd-41" target="MVl43ReA70MVfQG40Yfd-42" edge="1">
                    <mxGeometry width="100" height="100" relative="1" as="geometry">
                        <Array as="points"/>
                    </mxGeometry>
                </mxCell>
                <mxCell id="MVl43ReA70MVfQG40Yfd-61" value="Yes" style="text;html=1;resizable=0;labelBackgroundColor=default;align=center;verticalAlign=middle;fontStyle=1;fontSize=13.3;rounded=1;comic=0;backgroundOutline=1;fontFamily=Helvetica;" parent="MVl43ReA70MVfQG40Yfd-60" vertex="1">
                    <mxGeometry relative="1" as="geometry"/>
                </mxCell>
                <mxCell id="MVl43ReA70MVfQG40Yfd-62" value="" style="html=1;jettySize=18;whiteSpace=wrap;fontSize=13.3;fontColor=default;fontStyle=1;strokeOpacity=100;strokeWidth=0.8;rounded=1;arcSize=12;edgeStyle=orthogonalEdgeStyle;jumpStyle=arc;startArrow=none;endArrow=block;endFill=1;exitX=1;exitY=0.5;exitPerimeter=0;entryX=0;entryY=0.5;entryPerimeter=0;lucidId=ai9RUAZsvO6J;labelBackgroundColor=none;comic=0;backgroundOutline=1;fontFamily=Helvetica;" parent="DpDVmBFBOBijvgF_qr05-597" source="MVl43ReA70MVfQG40Yfd-41" target="MVl43ReA70MVfQG40Yfd-43" edge="1">
                    <mxGeometry width="100" height="100" relative="1" as="geometry">
                        <Array as="points"/>
                    </mxGeometry>
                </mxCell>
                <mxCell id="MVl43ReA70MVfQG40Yfd-63" value="No" style="text;html=1;resizable=0;labelBackgroundColor=default;align=center;verticalAlign=middle;fontStyle=1;fontSize=13.3;rounded=1;comic=0;backgroundOutline=1;fontFamily=Helvetica;" parent="MVl43ReA70MVfQG40Yfd-62" vertex="1">
                    <mxGeometry relative="1" as="geometry"/>
                </mxCell>
                <mxCell id="MVl43ReA70MVfQG40Yfd-64" value="" style="html=1;jettySize=18;whiteSpace=wrap;fontSize=13;strokeOpacity=100;strokeWidth=0.8;rounded=1;arcSize=12;edgeStyle=orthogonalEdgeStyle;jumpStyle=arc;startArrow=none;endArrow=block;endFill=1;exitX=1;exitY=0.5;exitPerimeter=0;entryX=0.9;entryY=0.5;entryPerimeter=0;lucidId=dj9Rh7nZt8Nf;fontColor=default;labelBackgroundColor=none;comic=0;backgroundOutline=1;fontFamily=Helvetica;" parent="DpDVmBFBOBijvgF_qr05-597" source="MVl43ReA70MVfQG40Yfd-40" target="MVl43ReA70MVfQG40Yfd-35" edge="1">
                    <mxGeometry width="100" height="100" relative="1" as="geometry">
                        <Array as="points">
                            <mxPoint x="353" y="798"/>
                            <mxPoint x="400" y="798"/>
                            <mxPoint x="400" y="261"/>
                        </Array>
                    </mxGeometry>
                </mxCell>
                <mxCell id="MVl43ReA70MVfQG40Yfd-65" value="" style="html=1;jettySize=18;whiteSpace=wrap;fontSize=13;strokeOpacity=100;strokeWidth=0.8;rounded=1;arcSize=12;edgeStyle=orthogonalEdgeStyle;jumpStyle=arc;startArrow=none;endArrow=block;endFill=1;exitX=1;exitY=0.5;exitPerimeter=0;entryX=0.9;entryY=0.5;entryPerimeter=0;lucidId=rj9RVhG1bTSD;fontColor=default;labelBackgroundColor=none;comic=0;backgroundOutline=1;fontFamily=Helvetica;" parent="DpDVmBFBOBijvgF_qr05-597" source="MVl43ReA70MVfQG40Yfd-43" target="MVl43ReA70MVfQG40Yfd-35" edge="1">
                    <mxGeometry width="100" height="100" relative="1" as="geometry">
                        <Array as="points">
                            <mxPoint x="353" y="1011"/>
                            <mxPoint x="400" y="1011"/>
                            <mxPoint x="400" y="261"/>
                        </Array>
                    </mxGeometry>
                </mxCell>
                <mxCell id="MVl43ReA70MVfQG40Yfd-66" value="" style="html=1;jettySize=18;whiteSpace=wrap;fontSize=13.3;fontColor=default;fontStyle=1;strokeOpacity=100;strokeWidth=0.8;rounded=1;arcSize=12;edgeStyle=orthogonalEdgeStyle;jumpStyle=arc;startArrow=none;endArrow=block;endFill=1;exitX=1;exitY=0.5;exitPerimeter=0;entryX=0;entryY=0.5;entryPerimeter=0;lucidId=~k9RAORXZ_~u;labelBackgroundColor=none;comic=0;backgroundOutline=1;fontFamily=Helvetica;" parent="DpDVmBFBOBijvgF_qr05-597" source="MVl43ReA70MVfQG40Yfd-42" target="MVl43ReA70MVfQG40Yfd-44" edge="1">
                    <mxGeometry width="100" height="100" relative="1" as="geometry">
                        <Array as="points"/>
                    </mxGeometry>
                </mxCell>
                <mxCell id="MVl43ReA70MVfQG40Yfd-67" value="Yes" style="text;html=1;resizable=0;labelBackgroundColor=default;align=center;verticalAlign=middle;fontStyle=1;fontSize=13.3;rounded=1;comic=0;backgroundOutline=1;fontFamily=Helvetica;" parent="MVl43ReA70MVfQG40Yfd-66" vertex="1">
                    <mxGeometry relative="1" as="geometry"/>
                </mxCell>
                <mxCell id="MVl43ReA70MVfQG40Yfd-68" value="" style="html=1;jettySize=18;whiteSpace=wrap;fontSize=13.3;fontColor=default;fontStyle=1;strokeOpacity=100;strokeWidth=0.8;rounded=1;arcSize=12;edgeStyle=orthogonalEdgeStyle;jumpStyle=arc;startArrow=none;endArrow=block;endFill=1;exitX=0.5;exitY=1;exitPerimeter=0;entryX=0.5;entryY=0;entryPerimeter=0;lucidId=Gm9RWKsgP.J4;labelBackgroundColor=none;comic=0;backgroundOutline=1;fontFamily=Helvetica;" parent="DpDVmBFBOBijvgF_qr05-597" source="MVl43ReA70MVfQG40Yfd-42" target="MVl43ReA70MVfQG40Yfd-45" edge="1">
                    <mxGeometry width="100" height="100" relative="1" as="geometry">
                        <Array as="points"/>
                    </mxGeometry>
                </mxCell>
                <mxCell id="MVl43ReA70MVfQG40Yfd-69" value="No" style="text;html=1;resizable=0;labelBackgroundColor=default;align=center;verticalAlign=middle;fontStyle=1;fontSize=13.3;rounded=1;comic=0;backgroundOutline=1;fontFamily=Helvetica;" parent="MVl43ReA70MVfQG40Yfd-68" vertex="1">
                    <mxGeometry relative="1" as="geometry"/>
                </mxCell>
                <mxCell id="MVl43ReA70MVfQG40Yfd-70" value="" style="html=1;jettySize=18;whiteSpace=wrap;fontSize=13;strokeOpacity=100;strokeWidth=0.8;rounded=1;arcSize=12;edgeStyle=orthogonalEdgeStyle;jumpStyle=arc;startArrow=none;endArrow=block;endFill=1;exitX=0.5;exitY=1;exitPerimeter=0;lucidId=an9RdkZ21QjO;fontColor=default;labelBackgroundColor=none;comic=0;backgroundOutline=1;fontFamily=Helvetica;" parent="DpDVmBFBOBijvgF_qr05-597" source="MVl43ReA70MVfQG40Yfd-45" target="DpDVmBFBOBijvgF_qr05-592" edge="1">
                    <mxGeometry width="100" height="100" relative="1" as="geometry">
                        <Array as="points"/>
                        <mxPoint x="105.5" y="1560" as="targetPoint"/>
                    </mxGeometry>
                </mxCell>
                <mxCell id="MVl43ReA70MVfQG40Yfd-71" value="" style="html=1;jettySize=18;whiteSpace=wrap;fontSize=13;strokeOpacity=100;strokeWidth=0.8;rounded=1;arcSize=12;edgeStyle=orthogonalEdgeStyle;startArrow=none;endArrow=block;endFill=1;exitX=1;exitY=0.5;exitPerimeter=0;entryX=0.9;entryY=0.5;entryPerimeter=0;lucidId=YC-RiIlHHKmy;fontColor=default;fillColor=none;labelBackgroundColor=none;comic=0;backgroundOutline=1;fontFamily=Helvetica;" parent="DpDVmBFBOBijvgF_qr05-597" source="MVl43ReA70MVfQG40Yfd-44" target="MVl43ReA70MVfQG40Yfd-35" edge="1">
                    <mxGeometry width="100" height="100" relative="1" as="geometry">
                        <Array as="points">
                            <mxPoint x="353" y="1240"/>
                            <mxPoint x="400" y="1240"/>
                            <mxPoint x="400" y="261"/>
                        </Array>
                    </mxGeometry>
                </mxCell>
                <mxCell id="DpDVmBFBOBijvgF_qr05-596" value="Start" style="strokeWidth=2;html=1;shape=mxgraph.flowchart.start_1;whiteSpace=wrap;fillColor=none;comic=0;backgroundOutline=1;fontFamily=Helvetica;labelBackgroundColor=none;rounded=1;" parent="DpDVmBFBOBijvgF_qr05-597" vertex="1">
                    <mxGeometry x="55" y="80" width="100" height="60" as="geometry"/>
                </mxCell>
                <mxCell id="DpDVmBFBOBijvgF_qr05-592" value="End" style="strokeWidth=2;html=1;shape=mxgraph.flowchart.start_1;whiteSpace=wrap;comic=0;backgroundOutline=1;fillColor=none;fontFamily=Helvetica;labelBackgroundColor=none;rounded=1;" parent="DpDVmBFBOBijvgF_qr05-597" vertex="1">
                    <mxGeometry x="55" y="1560" width="100" height="60" as="geometry"/>
                </mxCell>
                <mxCell id="DpDVmBFBOBijvgF_qr05-691" value="" style="group;rounded=1;comic=0;" parent="DpDVmBFBOBijvgF_qr05-693" vertex="1" connectable="0">
                    <mxGeometry x="6" y="1590" width="460" height="2003.75" as="geometry"/>
                </mxCell>
                <mxCell id="DpDVmBFBOBijvgF_qr05-616" style="edgeStyle=orthogonalEdgeStyle;rounded=1;orthogonalLoop=1;jettySize=auto;html=1;entryX=0.5;entryY=0;entryDx=0;entryDy=0;fontFamily=Helvetica;comic=0;" parent="DpDVmBFBOBijvgF_qr05-691" source="DpDVmBFBOBijvgF_qr05-614" target="DpDVmBFBOBijvgF_qr05-617" edge="1">
                    <mxGeometry relative="1" as="geometry">
                        <mxPoint x="100.00000000000023" y="230" as="targetPoint"/>
                    </mxGeometry>
                </mxCell>
                <mxCell id="DpDVmBFBOBijvgF_qr05-614" value="&lt;font&gt;Start&lt;/font&gt;" style="strokeWidth=2;html=1;shape=mxgraph.flowchart.start_1;whiteSpace=wrap;fontFamily=Helvetica;rounded=1;fillColor=none;comic=0;" parent="DpDVmBFBOBijvgF_qr05-691" vertex="1">
                    <mxGeometry x="20" y="80" width="160" height="80" as="geometry"/>
                </mxCell>
                <mxCell id="DpDVmBFBOBijvgF_qr05-621" value="" style="edgeStyle=orthogonalEdgeStyle;rounded=1;orthogonalLoop=1;jettySize=auto;html=1;comic=0;" parent="DpDVmBFBOBijvgF_qr05-691" source="DpDVmBFBOBijvgF_qr05-617" target="DpDVmBFBOBijvgF_qr05-620" edge="1">
                    <mxGeometry relative="1" as="geometry"/>
                </mxCell>
                <mxCell id="DpDVmBFBOBijvgF_qr05-617" value="Enter required Data" style="shape=parallelogram;html=1;strokeWidth=2;perimeter=parallelogramPerimeter;whiteSpace=wrap;rounded=1;arcSize=12;size=0.23;fontFamily=Helvetica;fillColor=none;comic=0;" parent="DpDVmBFBOBijvgF_qr05-691" vertex="1">
                    <mxGeometry x="15" y="250" width="170" height="60" as="geometry"/>
                </mxCell>
                <mxCell id="DpDVmBFBOBijvgF_qr05-623" value="" style="edgeStyle=orthogonalEdgeStyle;rounded=1;orthogonalLoop=1;jettySize=auto;html=1;comic=0;" parent="DpDVmBFBOBijvgF_qr05-691" source="DpDVmBFBOBijvgF_qr05-620" target="DpDVmBFBOBijvgF_qr05-622" edge="1">
                    <mxGeometry relative="1" as="geometry"/>
                </mxCell>
                <mxCell id="DpDVmBFBOBijvgF_qr05-620" value="Verify Data" style="rounded=1;whiteSpace=wrap;html=1;strokeWidth=2;arcSize=12;fillColor=none;comic=0;" parent="DpDVmBFBOBijvgF_qr05-691" vertex="1">
                    <mxGeometry x="40" y="390" width="120" height="60" as="geometry"/>
                </mxCell>
                <mxCell id="DpDVmBFBOBijvgF_qr05-629" value="" style="edgeStyle=orthogonalEdgeStyle;rounded=1;orthogonalLoop=1;jettySize=auto;html=1;comic=0;" parent="DpDVmBFBOBijvgF_qr05-691" source="DpDVmBFBOBijvgF_qr05-622" target="DpDVmBFBOBijvgF_qr05-628" edge="1">
                    <mxGeometry relative="1" as="geometry"/>
                </mxCell>
                <mxCell id="DpDVmBFBOBijvgF_qr05-631" value="No" style="edgeLabel;html=1;align=center;verticalAlign=middle;resizable=0;points=[];rounded=1;comic=0;" parent="DpDVmBFBOBijvgF_qr05-629" vertex="1" connectable="0">
                    <mxGeometry x="-0.2593" y="-1" relative="1" as="geometry">
                        <mxPoint x="15" y="-1" as="offset"/>
                    </mxGeometry>
                </mxCell>
                <mxCell id="DpDVmBFBOBijvgF_qr05-632" style="edgeStyle=orthogonalEdgeStyle;rounded=1;orthogonalLoop=1;jettySize=auto;html=1;comic=0;" parent="DpDVmBFBOBijvgF_qr05-691" source="DpDVmBFBOBijvgF_qr05-622" target="DpDVmBFBOBijvgF_qr05-634" edge="1">
                    <mxGeometry relative="1" as="geometry">
                        <mxPoint x="100" y="720.0000000000005" as="targetPoint"/>
                    </mxGeometry>
                </mxCell>
                <mxCell id="DpDVmBFBOBijvgF_qr05-633" value="Yes" style="edgeLabel;html=1;align=center;verticalAlign=middle;resizable=0;points=[];rounded=1;comic=0;" parent="DpDVmBFBOBijvgF_qr05-632" vertex="1" connectable="0">
                    <mxGeometry x="-0.1113" relative="1" as="geometry">
                        <mxPoint y="4" as="offset"/>
                    </mxGeometry>
                </mxCell>
                <mxCell id="DpDVmBFBOBijvgF_qr05-622" value="Is title &amp;lt;255?" style="rhombus;whiteSpace=wrap;html=1;rounded=1;strokeWidth=2;arcSize=12;fillColor=none;comic=0;" parent="DpDVmBFBOBijvgF_qr05-691" vertex="1">
                    <mxGeometry x="50" y="520" width="100" height="80" as="geometry"/>
                </mxCell>
                <mxCell id="DpDVmBFBOBijvgF_qr05-649" style="edgeStyle=orthogonalEdgeStyle;rounded=1;orthogonalLoop=1;jettySize=auto;html=1;entryX=1;entryY=0.5;entryDx=0;entryDy=0;comic=0;" parent="DpDVmBFBOBijvgF_qr05-691" source="DpDVmBFBOBijvgF_qr05-628" target="DpDVmBFBOBijvgF_qr05-617" edge="1">
                    <mxGeometry relative="1" as="geometry">
                        <Array as="points">
                            <mxPoint x="460" y="560"/>
                            <mxPoint x="460" y="280"/>
                        </Array>
                    </mxGeometry>
                </mxCell>
                <mxCell id="DpDVmBFBOBijvgF_qr05-628" value="Print &quot;Title is too long&quot;" style="whiteSpace=wrap;html=1;rounded=1;strokeWidth=2;arcSize=12;fillColor=none;comic=0;" parent="DpDVmBFBOBijvgF_qr05-691" vertex="1">
                    <mxGeometry x="293" y="530" width="120" height="60" as="geometry"/>
                </mxCell>
                <mxCell id="DpDVmBFBOBijvgF_qr05-636" value="" style="edgeStyle=orthogonalEdgeStyle;rounded=1;orthogonalLoop=1;jettySize=auto;html=1;comic=0;" parent="DpDVmBFBOBijvgF_qr05-691" source="DpDVmBFBOBijvgF_qr05-634" target="DpDVmBFBOBijvgF_qr05-635" edge="1">
                    <mxGeometry relative="1" as="geometry"/>
                </mxCell>
                <mxCell id="DpDVmBFBOBijvgF_qr05-641" value="Yes" style="edgeLabel;html=1;align=center;verticalAlign=middle;resizable=0;points=[];rounded=1;comic=0;" parent="DpDVmBFBOBijvgF_qr05-636" vertex="1" connectable="0">
                    <mxGeometry x="-0.013" relative="1" as="geometry">
                        <mxPoint as="offset"/>
                    </mxGeometry>
                </mxCell>
                <mxCell id="DpDVmBFBOBijvgF_qr05-634" value="User Entered Description?" style="strokeWidth=2;html=1;shape=mxgraph.flowchart.decision;whiteSpace=wrap;rounded=1;fillColor=none;comic=0;" parent="DpDVmBFBOBijvgF_qr05-691" vertex="1">
                    <mxGeometry x="40" y="680" width="120" height="100" as="geometry"/>
                </mxCell>
                <mxCell id="DpDVmBFBOBijvgF_qr05-638" value="" style="edgeStyle=orthogonalEdgeStyle;rounded=1;orthogonalLoop=1;jettySize=auto;html=1;comic=0;" parent="DpDVmBFBOBijvgF_qr05-691" source="DpDVmBFBOBijvgF_qr05-635" target="DpDVmBFBOBijvgF_qr05-637" edge="1">
                    <mxGeometry relative="1" as="geometry"/>
                </mxCell>
                <mxCell id="DpDVmBFBOBijvgF_qr05-639" value="No" style="edgeLabel;html=1;align=center;verticalAlign=middle;resizable=0;points=[];rounded=1;comic=0;" parent="DpDVmBFBOBijvgF_qr05-638" vertex="1" connectable="0">
                    <mxGeometry x="0.0463" y="-1" relative="1" as="geometry">
                        <mxPoint x="-12" y="-1" as="offset"/>
                    </mxGeometry>
                </mxCell>
                <mxCell id="DpDVmBFBOBijvgF_qr05-643" value="" style="edgeStyle=orthogonalEdgeStyle;rounded=1;orthogonalLoop=1;jettySize=auto;html=1;comic=0;" parent="DpDVmBFBOBijvgF_qr05-691" source="DpDVmBFBOBijvgF_qr05-635" target="DpDVmBFBOBijvgF_qr05-642" edge="1">
                    <mxGeometry relative="1" as="geometry"/>
                </mxCell>
                <mxCell id="DpDVmBFBOBijvgF_qr05-644" value="Yes" style="edgeLabel;html=1;align=center;verticalAlign=middle;resizable=0;points=[];rounded=1;comic=0;" parent="DpDVmBFBOBijvgF_qr05-643" vertex="1" connectable="0">
                    <mxGeometry x="0.1632" y="-3" relative="1" as="geometry">
                        <mxPoint x="1" y="-1" as="offset"/>
                    </mxGeometry>
                </mxCell>
                <mxCell id="DpDVmBFBOBijvgF_qr05-635" value="Description &amp;gt;1000?" style="strokeWidth=2;html=1;shape=mxgraph.flowchart.decision;whiteSpace=wrap;rounded=1;fillColor=none;comic=0;" parent="DpDVmBFBOBijvgF_qr05-691" vertex="1">
                    <mxGeometry x="40" y="860" width="120" height="100" as="geometry"/>
                </mxCell>
                <mxCell id="DpDVmBFBOBijvgF_qr05-650" style="edgeStyle=orthogonalEdgeStyle;rounded=1;orthogonalLoop=1;jettySize=auto;html=1;entryX=1;entryY=0.5;entryDx=0;entryDy=0;comic=0;" parent="DpDVmBFBOBijvgF_qr05-691" source="DpDVmBFBOBijvgF_qr05-637" target="DpDVmBFBOBijvgF_qr05-617" edge="1">
                    <mxGeometry relative="1" as="geometry">
                        <Array as="points">
                            <mxPoint x="460" y="910"/>
                            <mxPoint x="460" y="280"/>
                        </Array>
                    </mxGeometry>
                </mxCell>
                <mxCell id="DpDVmBFBOBijvgF_qr05-637" value="Print &quot;Description is too long&quot;" style="whiteSpace=wrap;html=1;strokeWidth=2;rounded=1;fillColor=none;comic=0;" parent="DpDVmBFBOBijvgF_qr05-691" vertex="1">
                    <mxGeometry x="293" y="880" width="120" height="60" as="geometry"/>
                </mxCell>
                <mxCell id="DpDVmBFBOBijvgF_qr05-646" value="" style="edgeStyle=orthogonalEdgeStyle;rounded=1;orthogonalLoop=1;jettySize=auto;html=1;comic=0;" parent="DpDVmBFBOBijvgF_qr05-691" source="DpDVmBFBOBijvgF_qr05-642" target="DpDVmBFBOBijvgF_qr05-645" edge="1">
                    <mxGeometry relative="1" as="geometry"/>
                </mxCell>
                <mxCell id="DpDVmBFBOBijvgF_qr05-647" value="No" style="edgeLabel;html=1;align=center;verticalAlign=middle;resizable=0;points=[];rounded=1;comic=0;" parent="DpDVmBFBOBijvgF_qr05-646" vertex="1" connectable="0">
                    <mxGeometry x="0.1574" y="-1" relative="1" as="geometry">
                        <mxPoint x="-19" y="-1" as="offset"/>
                    </mxGeometry>
                </mxCell>
                <mxCell id="DpDVmBFBOBijvgF_qr05-657" value="" style="edgeStyle=orthogonalEdgeStyle;rounded=1;orthogonalLoop=1;jettySize=auto;html=1;comic=0;" parent="DpDVmBFBOBijvgF_qr05-691" source="DpDVmBFBOBijvgF_qr05-642" target="DpDVmBFBOBijvgF_qr05-656" edge="1">
                    <mxGeometry relative="1" as="geometry"/>
                </mxCell>
                <mxCell id="DpDVmBFBOBijvgF_qr05-658" value="Yes" style="edgeLabel;html=1;align=center;verticalAlign=middle;resizable=0;points=[];rounded=1;comic=0;" parent="DpDVmBFBOBijvgF_qr05-657" vertex="1" connectable="0">
                    <mxGeometry x="-0.0074" y="1" relative="1" as="geometry">
                        <mxPoint x="-1" as="offset"/>
                    </mxGeometry>
                </mxCell>
                <mxCell id="DpDVmBFBOBijvgF_qr05-642" value="date_time in the furture" style="strokeWidth=2;html=1;shape=mxgraph.flowchart.decision;whiteSpace=wrap;rounded=1;fillColor=none;comic=0;" parent="DpDVmBFBOBijvgF_qr05-691" vertex="1">
                    <mxGeometry x="40" y="1040" width="120" height="100" as="geometry"/>
                </mxCell>
                <mxCell id="DpDVmBFBOBijvgF_qr05-651" style="edgeStyle=orthogonalEdgeStyle;rounded=1;orthogonalLoop=1;jettySize=auto;html=1;entryX=1;entryY=0.5;entryDx=0;entryDy=0;comic=0;" parent="DpDVmBFBOBijvgF_qr05-691" source="DpDVmBFBOBijvgF_qr05-645" target="DpDVmBFBOBijvgF_qr05-617" edge="1">
                    <mxGeometry relative="1" as="geometry">
                        <Array as="points">
                            <mxPoint x="460" y="1090"/>
                            <mxPoint x="460" y="280"/>
                        </Array>
                    </mxGeometry>
                </mxCell>
                <mxCell id="DpDVmBFBOBijvgF_qr05-645" value="Print &quot;Date must be only in the future" style="whiteSpace=wrap;html=1;strokeWidth=2;rounded=1;fillColor=none;comic=0;" parent="DpDVmBFBOBijvgF_qr05-691" vertex="1">
                    <mxGeometry x="293" y="1060" width="120" height="60" as="geometry"/>
                </mxCell>
                <mxCell id="DpDVmBFBOBijvgF_qr05-654" style="edgeStyle=orthogonalEdgeStyle;rounded=1;orthogonalLoop=1;jettySize=auto;html=1;entryX=0;entryY=0.5;entryDx=0;entryDy=0;entryPerimeter=0;comic=0;" parent="DpDVmBFBOBijvgF_qr05-691" source="DpDVmBFBOBijvgF_qr05-634" target="DpDVmBFBOBijvgF_qr05-642" edge="1">
                    <mxGeometry relative="1" as="geometry">
                        <Array as="points">
                            <mxPoint y="730.0000000000005"/>
                            <mxPoint y="1090"/>
                        </Array>
                    </mxGeometry>
                </mxCell>
                <mxCell id="DpDVmBFBOBijvgF_qr05-655" value="No" style="edgeLabel;html=1;align=center;verticalAlign=middle;resizable=0;points=[];rounded=1;comic=0;" parent="DpDVmBFBOBijvgF_qr05-654" vertex="1" connectable="0">
                    <mxGeometry x="-0.0242" relative="1" as="geometry">
                        <mxPoint as="offset"/>
                    </mxGeometry>
                </mxCell>
                <mxCell id="DpDVmBFBOBijvgF_qr05-662" value="" style="edgeStyle=orthogonalEdgeStyle;rounded=1;orthogonalLoop=1;jettySize=auto;html=1;comic=0;" parent="DpDVmBFBOBijvgF_qr05-691" source="DpDVmBFBOBijvgF_qr05-656" target="DpDVmBFBOBijvgF_qr05-661" edge="1">
                    <mxGeometry relative="1" as="geometry"/>
                </mxCell>
                <mxCell id="DpDVmBFBOBijvgF_qr05-663" value="No" style="edgeLabel;html=1;align=center;verticalAlign=middle;resizable=0;points=[];rounded=1;comic=0;" parent="DpDVmBFBOBijvgF_qr05-662" vertex="1" connectable="0">
                    <mxGeometry x="-0.1164" y="-1" relative="1" as="geometry">
                        <mxPoint as="offset"/>
                    </mxGeometry>
                </mxCell>
                <mxCell id="DpDVmBFBOBijvgF_qr05-666" value="" style="edgeStyle=orthogonalEdgeStyle;rounded=1;orthogonalLoop=1;jettySize=auto;html=1;comic=0;" parent="DpDVmBFBOBijvgF_qr05-691" source="DpDVmBFBOBijvgF_qr05-656" target="DpDVmBFBOBijvgF_qr05-665" edge="1">
                    <mxGeometry relative="1" as="geometry"/>
                </mxCell>
                <mxCell id="DpDVmBFBOBijvgF_qr05-656" value="lat and long valid?" style="rhombus;whiteSpace=wrap;html=1;strokeWidth=2;rounded=1;fillColor=none;comic=0;" parent="DpDVmBFBOBijvgF_qr05-691" vertex="1">
                    <mxGeometry x="35" y="1210" width="130" height="90" as="geometry"/>
                </mxCell>
                <mxCell id="DpDVmBFBOBijvgF_qr05-664" style="edgeStyle=orthogonalEdgeStyle;rounded=1;orthogonalLoop=1;jettySize=auto;html=1;entryX=1;entryY=0.5;entryDx=0;entryDy=0;comic=0;" parent="DpDVmBFBOBijvgF_qr05-691" source="DpDVmBFBOBijvgF_qr05-661" target="DpDVmBFBOBijvgF_qr05-617" edge="1">
                    <mxGeometry relative="1" as="geometry">
                        <Array as="points">
                            <mxPoint x="460" y="1255"/>
                            <mxPoint x="460" y="280"/>
                        </Array>
                    </mxGeometry>
                </mxCell>
                <mxCell id="DpDVmBFBOBijvgF_qr05-661" value="Print &quot; make sure lat and long adhere to the&amp;nbsp;" style="whiteSpace=wrap;html=1;strokeWidth=2;rounded=1;fillColor=none;comic=0;" parent="DpDVmBFBOBijvgF_qr05-691" vertex="1">
                    <mxGeometry x="293" y="1225" width="120" height="60" as="geometry"/>
                </mxCell>
                <mxCell id="DpDVmBFBOBijvgF_qr05-668" value="" style="edgeStyle=orthogonalEdgeStyle;rounded=1;orthogonalLoop=1;jettySize=auto;html=1;comic=0;" parent="DpDVmBFBOBijvgF_qr05-691" source="DpDVmBFBOBijvgF_qr05-665" target="DpDVmBFBOBijvgF_qr05-667" edge="1">
                    <mxGeometry relative="1" as="geometry"/>
                </mxCell>
                <mxCell id="DpDVmBFBOBijvgF_qr05-669" value="No" style="edgeLabel;html=1;align=center;verticalAlign=middle;resizable=0;points=[];rounded=1;comic=0;" parent="DpDVmBFBOBijvgF_qr05-668" vertex="1" connectable="0">
                    <mxGeometry x="-0.0337" relative="1" as="geometry">
                        <mxPoint as="offset"/>
                    </mxGeometry>
                </mxCell>
                <mxCell id="DpDVmBFBOBijvgF_qr05-672" value="" style="edgeStyle=orthogonalEdgeStyle;rounded=1;orthogonalLoop=1;jettySize=auto;html=1;comic=0;" parent="DpDVmBFBOBijvgF_qr05-691" source="DpDVmBFBOBijvgF_qr05-665" target="DpDVmBFBOBijvgF_qr05-671" edge="1">
                    <mxGeometry relative="1" as="geometry"/>
                </mxCell>
                <mxCell id="DpDVmBFBOBijvgF_qr05-673" value="Yes" style="edgeLabel;html=1;align=center;verticalAlign=middle;resizable=0;points=[];rounded=1;comic=0;" parent="DpDVmBFBOBijvgF_qr05-672" vertex="1" connectable="0">
                    <mxGeometry x="0.02" y="2" relative="1" as="geometry">
                        <mxPoint as="offset"/>
                    </mxGeometry>
                </mxCell>
                <mxCell id="DpDVmBFBOBijvgF_qr05-665" value="ticket count &amp;lt;0?" style="rhombus;whiteSpace=wrap;html=1;strokeWidth=2;rounded=1;fillColor=none;comic=0;" parent="DpDVmBFBOBijvgF_qr05-691" vertex="1">
                    <mxGeometry x="40" y="1390" width="120" height="105" as="geometry"/>
                </mxCell>
                <mxCell id="DpDVmBFBOBijvgF_qr05-670" style="edgeStyle=orthogonalEdgeStyle;rounded=1;orthogonalLoop=1;jettySize=auto;html=1;entryX=1;entryY=0.5;entryDx=0;entryDy=0;comic=0;" parent="DpDVmBFBOBijvgF_qr05-691" source="DpDVmBFBOBijvgF_qr05-667" target="DpDVmBFBOBijvgF_qr05-617" edge="1">
                    <mxGeometry relative="1" as="geometry">
                        <Array as="points">
                            <mxPoint x="460" y="1443"/>
                            <mxPoint x="460" y="280"/>
                        </Array>
                    </mxGeometry>
                </mxCell>
                <mxCell id="DpDVmBFBOBijvgF_qr05-667" value="Print &quot;cannot create event with 0 or less tickets" style="whiteSpace=wrap;html=1;strokeWidth=2;rounded=1;fillColor=none;comic=0;" parent="DpDVmBFBOBijvgF_qr05-691" vertex="1">
                    <mxGeometry x="293" y="1412.5" width="120" height="60" as="geometry"/>
                </mxCell>
                <mxCell id="DpDVmBFBOBijvgF_qr05-677" style="edgeStyle=orthogonalEdgeStyle;rounded=1;orthogonalLoop=1;jettySize=auto;html=1;entryX=0;entryY=0.5;entryDx=0;entryDy=0;comic=0;" parent="DpDVmBFBOBijvgF_qr05-691" source="DpDVmBFBOBijvgF_qr05-671" target="DpDVmBFBOBijvgF_qr05-676" edge="1">
                    <mxGeometry relative="1" as="geometry"/>
                </mxCell>
                <mxCell id="DpDVmBFBOBijvgF_qr05-678" value="No" style="edgeLabel;html=1;align=center;verticalAlign=middle;resizable=0;points=[];rounded=1;comic=0;" parent="DpDVmBFBOBijvgF_qr05-677" vertex="1" connectable="0">
                    <mxGeometry x="0.0387" y="1" relative="1" as="geometry">
                        <mxPoint as="offset"/>
                    </mxGeometry>
                </mxCell>
                <mxCell id="DpDVmBFBOBijvgF_qr05-683" value="" style="edgeStyle=orthogonalEdgeStyle;rounded=1;orthogonalLoop=1;jettySize=auto;html=1;comic=0;" parent="DpDVmBFBOBijvgF_qr05-691" source="DpDVmBFBOBijvgF_qr05-671" target="DpDVmBFBOBijvgF_qr05-682" edge="1">
                    <mxGeometry relative="1" as="geometry"/>
                </mxCell>
                <mxCell id="DpDVmBFBOBijvgF_qr05-671" value="ticket price &amp;lt;0?" style="rhombus;whiteSpace=wrap;html=1;strokeWidth=2;rounded=1;fillColor=none;comic=0;" parent="DpDVmBFBOBijvgF_qr05-691" vertex="1">
                    <mxGeometry x="45" y="1590" width="110" height="102.5" as="geometry"/>
                </mxCell>
                <mxCell id="DpDVmBFBOBijvgF_qr05-681" style="edgeStyle=orthogonalEdgeStyle;rounded=1;orthogonalLoop=1;jettySize=auto;html=1;entryX=1;entryY=0.5;entryDx=0;entryDy=0;exitX=1;exitY=0.5;exitDx=0;exitDy=0;comic=0;" parent="DpDVmBFBOBijvgF_qr05-691" source="DpDVmBFBOBijvgF_qr05-676" target="DpDVmBFBOBijvgF_qr05-617" edge="1">
                    <mxGeometry relative="1" as="geometry">
                        <Array as="points">
                            <mxPoint x="413" y="1641"/>
                            <mxPoint x="460" y="1641"/>
                            <mxPoint x="460" y="280"/>
                        </Array>
                    </mxGeometry>
                </mxCell>
                <mxCell id="DpDVmBFBOBijvgF_qr05-676" value="Print &quot;cannot create event with 0 or less price" style="whiteSpace=wrap;html=1;strokeWidth=2;rounded=1;fillColor=none;comic=0;" parent="DpDVmBFBOBijvgF_qr05-691" vertex="1">
                    <mxGeometry x="293" y="1615.63" width="120" height="54.37" as="geometry"/>
                </mxCell>
                <mxCell id="DpDVmBFBOBijvgF_qr05-685" value="" style="edgeStyle=orthogonalEdgeStyle;rounded=1;orthogonalLoop=1;jettySize=auto;html=1;comic=0;" parent="DpDVmBFBOBijvgF_qr05-691" source="DpDVmBFBOBijvgF_qr05-682" target="DpDVmBFBOBijvgF_qr05-684" edge="1">
                    <mxGeometry relative="1" as="geometry"/>
                </mxCell>
                <mxCell id="DpDVmBFBOBijvgF_qr05-682" value="Generate Tickets according to count" style="whiteSpace=wrap;html=1;strokeWidth=2;rounded=1;fillColor=none;comic=0;" parent="DpDVmBFBOBijvgF_qr05-691" vertex="1">
                    <mxGeometry x="40" y="1793.75" width="120" height="60" as="geometry"/>
                </mxCell>
                <mxCell id="DpDVmBFBOBijvgF_qr05-684" value="End" style="ellipse;whiteSpace=wrap;html=1;strokeWidth=2;rounded=1;fillColor=none;comic=0;" parent="DpDVmBFBOBijvgF_qr05-691" vertex="1">
                    <mxGeometry x="35" y="1923.75" width="130" height="80" as="geometry"/>
                </mxCell>
                <mxCell id="DpDVmBFBOBijvgF_qr05-690" value="Create Event" style="text;html=1;align=center;verticalAlign=middle;resizable=0;points=[];autosize=1;strokeColor=none;fillColor=none;rounded=1;comic=0;" parent="DpDVmBFBOBijvgF_qr05-691" vertex="1">
                    <mxGeometry x="55" width="90" height="30" as="geometry"/>
                </mxCell>
                <mxCell id="DpDVmBFBOBijvgF_qr05-692" value="" style="group;rounded=1;comic=0;" parent="DpDVmBFBOBijvgF_qr05-693" vertex="1" connectable="0">
                    <mxGeometry y="20" width="713" height="1449.4405594405594" as="geometry"/>
                </mxCell>
                <mxCell id="MVl43ReA70MVfQG40Yfd-3" value="Enter Credentials" style="html=1;overflow=block;blockSpacing=1;whiteSpace=wrap;shape=parallelogram;perimeter=parallelogramPerimeter;anchorPointDirection=0;fontSize=16.7;spacing=3.8;strokeOpacity=100;rounded=1;absoluteArcSize=1;arcSize=9;fillColor=none;strokeWidth=NaN;lucidId=bS8RAu1xy._s;labelBackgroundColor=none;comic=0;backgroundOutline=1;fontFamily=Helvetica;container=0;" parent="DpDVmBFBOBijvgF_qr05-692" vertex="1">
                    <mxGeometry x="41" y="215.87412587412587" width="120" height="92.5174825174825" as="geometry"/>
                </mxCell>
                <mxCell id="MVl43ReA70MVfQG40Yfd-4" value="Verfiy credentials" style="html=1;overflow=block;blockSpacing=1;whiteSpace=wrap;fontSize=16.7;spacing=9;strokeOpacity=100;rounded=1;absoluteArcSize=1;arcSize=9;fillColor=none;strokeWidth=NaN;lucidId=HS8Rw0GhX9u4;labelBackgroundColor=none;comic=0;backgroundOutline=1;fontFamily=Helvetica;container=0;" parent="DpDVmBFBOBijvgF_qr05-692" vertex="1">
                    <mxGeometry x="41" y="400.9090909090909" width="120" height="92.5174825174825" as="geometry"/>
                </mxCell>
                <mxCell id="MVl43ReA70MVfQG40Yfd-5" value="email      exists?" style="html=1;overflow=block;blockSpacing=1;whiteSpace=wrap;rhombus;fontSize=16.7;spacing=3.8;strokeOpacity=100;rounded=1;absoluteArcSize=1;arcSize=9;fillColor=none;strokeWidth=NaN;lucidId=kT8Rc7sCNuL_;labelBackgroundColor=none;comic=0;backgroundOutline=1;fontFamily=Helvetica;container=0;" parent="DpDVmBFBOBijvgF_qr05-692" vertex="1">
                    <mxGeometry x="41" y="585.9440559440559" width="120" height="107.93706293706293" as="geometry"/>
                </mxCell>
                <mxCell id="MVl43ReA70MVfQG40Yfd-6" value="print &quot;Invalid Credentials&quot;" style="html=1;overflow=block;blockSpacing=1;whiteSpace=wrap;fontSize=16.7;spacing=9;strokeOpacity=100;rounded=1;absoluteArcSize=1;arcSize=9;fillColor=none;strokeWidth=NaN;lucidId=TU8RcThAQdwS;labelBackgroundColor=none;comic=0;backgroundOutline=1;fontFamily=Helvetica;container=0;" parent="DpDVmBFBOBijvgF_qr05-692" vertex="1">
                    <mxGeometry x="251" y="594.1678321678321" width="210" height="92.5174825174825" as="geometry"/>
                </mxCell>
                <mxCell id="MVl43ReA70MVfQG40Yfd-7" value="Password Match?" style="html=1;overflow=block;blockSpacing=1;whiteSpace=wrap;rhombus;fontSize=16.7;spacing=3.8;strokeOpacity=100;rounded=1;absoluteArcSize=1;arcSize=9;fillColor=none;strokeWidth=NaN;lucidId=8W8R0ry4o~bU;labelBackgroundColor=none;comic=0;backgroundOutline=1;fontFamily=Helvetica;container=0;" parent="DpDVmBFBOBijvgF_qr05-692" vertex="1">
                    <mxGeometry y="786.3986013986014" width="202" height="107.93706293706293" as="geometry"/>
                </mxCell>
                <mxCell id="MVl43ReA70MVfQG40Yfd-8" value="Generate Auth Token" style="html=1;overflow=block;blockSpacing=1;whiteSpace=wrap;fontSize=16.7;spacing=9;strokeOpacity=100;rounded=1;absoluteArcSize=1;arcSize=9;fillColor=none;strokeWidth=NaN;lucidId=h08R4.DVxMp8;labelBackgroundColor=none;comic=0;backgroundOutline=1;fontFamily=Helvetica;container=0;" parent="DpDVmBFBOBijvgF_qr05-692" vertex="1">
                    <mxGeometry x="41" y="1187.3076923076922" width="120" height="97.65734265734265" as="geometry"/>
                </mxCell>
                <mxCell id="MVl43ReA70MVfQG40Yfd-10" value="Login" style="html=1;overflow=block;blockSpacing=1;whiteSpace=wrap;fontSize=16.7;spacing=0;strokeOpacity=100;rounded=1;absoluteArcSize=1;arcSize=9;fillColor=none;strokeWidth=NaN;lucidId=u28R8~iJh-AG;strokeColor=none;labelBackgroundColor=none;comic=0;backgroundOutline=1;fontFamily=Helvetica;container=0;" parent="DpDVmBFBOBijvgF_qr05-692" vertex="1">
                    <mxGeometry x="131" width="180" height="46.25874125874125" as="geometry"/>
                </mxCell>
                <mxCell id="MVl43ReA70MVfQG40Yfd-11" value="user verified email?" style="html=1;overflow=block;blockSpacing=1;whiteSpace=wrap;rhombus;fontSize=16.7;spacing=3.8;strokeOpacity=100;rounded=1;absoluteArcSize=1;arcSize=9;fillColor=none;strokeWidth=NaN;lucidId=Kp9RJKct3eyV;labelBackgroundColor=none;comic=0;backgroundOutline=1;fontFamily=Helvetica;container=0;" parent="DpDVmBFBOBijvgF_qr05-692" vertex="1">
                    <mxGeometry x="3" y="945.7342657342657" width="200" height="154.1958041958042" as="geometry"/>
                </mxCell>
                <mxCell id="MVl43ReA70MVfQG40Yfd-12" value="Send Verification Email" style="html=1;overflow=block;blockSpacing=1;whiteSpace=wrap;fontSize=16.7;spacing=9;strokeOpacity=100;rounded=1;absoluteArcSize=1;arcSize=9;fillColor=none;strokeWidth=NaN;lucidId=eq9RlmZWrmUa;labelBackgroundColor=none;comic=0;backgroundOutline=1;fontFamily=Helvetica;container=0;" parent="DpDVmBFBOBijvgF_qr05-692" vertex="1">
                    <mxGeometry x="251" y="995.076923076923" width="152" height="92.5174825174825" as="geometry"/>
                </mxCell>
                <mxCell id="MVl43ReA70MVfQG40Yfd-88" value="" style="edgeStyle=orthogonalEdgeStyle;rounded=1;hachureGap=4;orthogonalLoop=1;jettySize=auto;html=1;fontFamily=Helvetica;flowAnimation=0;labelBackgroundColor=none;fontColor=default;comic=0;backgroundOutline=1;" parent="DpDVmBFBOBijvgF_qr05-692" source="MVl43ReA70MVfQG40Yfd-13" target="MVl43ReA70MVfQG40Yfd-12" edge="1">
                    <mxGeometry relative="1" as="geometry"/>
                </mxCell>
                <mxCell id="MVl43ReA70MVfQG40Yfd-13" value="print &quot;you haven&#39;t verified your email. We&#39;ve sent you a verification email. Please verfiy or contact our customer support" style="html=1;overflow=block;blockSpacing=1;whiteSpace=wrap;fontSize=16.7;spacing=9;strokeOpacity=100;rounded=1;absoluteArcSize=1;arcSize=9;fillColor=none;strokeWidth=NaN;lucidId=vq9RIyWG8kY6;labelBackgroundColor=none;comic=0;backgroundOutline=1;fontFamily=Helvetica;container=0;" parent="DpDVmBFBOBijvgF_qr05-692" vertex="1">
                    <mxGeometry x="435" y="966.2937062937062" width="278" height="148.02797202797203" as="geometry"/>
                </mxCell>
                <mxCell id="MVl43ReA70MVfQG40Yfd-14" value="" style="html=1;jettySize=18;whiteSpace=wrap;fontSize=13;strokeOpacity=100;strokeWidth=0.8;rounded=1;arcSize=12;edgeStyle=orthogonalEdgeStyle;jumpStyle=arc;startArrow=none;endArrow=block;endFill=1;exitX=0.5;exitY=1;exitPerimeter=0;entryX=0.5;entryY=0;entryPerimeter=0;lucidId=hS8Rk3HIokxz;fillColor=none;labelBackgroundColor=none;fontColor=default;comic=0;backgroundOutline=1;fontFamily=Helvetica;" parent="DpDVmBFBOBijvgF_qr05-692" target="MVl43ReA70MVfQG40Yfd-3" edge="1">
                    <mxGeometry width="100" height="100" relative="1" as="geometry">
                        <Array as="points"/>
                        <mxPoint x="101" y="123.35664335664336" as="sourcePoint"/>
                    </mxGeometry>
                </mxCell>
                <mxCell id="MVl43ReA70MVfQG40Yfd-15" value="" style="html=1;jettySize=18;whiteSpace=wrap;fontSize=13;strokeOpacity=100;strokeWidth=0.8;rounded=1;arcSize=12;edgeStyle=orthogonalEdgeStyle;jumpStyle=arc;startArrow=none;endArrow=block;endFill=1;exitX=0.5;exitY=1;exitPerimeter=0;entryX=0.5;entryY=0;entryPerimeter=0;lucidId=MS8RvTCdOQKP;fillColor=none;labelBackgroundColor=none;fontColor=default;comic=0;backgroundOutline=1;fontFamily=Helvetica;" parent="DpDVmBFBOBijvgF_qr05-692" source="MVl43ReA70MVfQG40Yfd-3" target="MVl43ReA70MVfQG40Yfd-4" edge="1">
                    <mxGeometry width="100" height="100" relative="1" as="geometry">
                        <Array as="points"/>
                    </mxGeometry>
                </mxCell>
                <mxCell id="MVl43ReA70MVfQG40Yfd-16" value="" style="html=1;jettySize=18;whiteSpace=wrap;fontSize=13;strokeOpacity=100;strokeWidth=0.8;rounded=1;arcSize=12;edgeStyle=orthogonalEdgeStyle;jumpStyle=arc;startArrow=none;endArrow=block;endFill=1;exitX=0.5;exitY=1;exitPerimeter=0;entryX=0.5;entryY=0;entryPerimeter=0;lucidId=qT8R3z8gL7E1;fillColor=none;labelBackgroundColor=none;fontColor=default;comic=0;backgroundOutline=1;fontFamily=Helvetica;" parent="DpDVmBFBOBijvgF_qr05-692" source="MVl43ReA70MVfQG40Yfd-4" target="MVl43ReA70MVfQG40Yfd-5" edge="1">
                    <mxGeometry width="100" height="100" relative="1" as="geometry">
                        <Array as="points"/>
                    </mxGeometry>
                </mxCell>
                <mxCell id="MVl43ReA70MVfQG40Yfd-17" value="" style="html=1;jettySize=18;whiteSpace=wrap;fontSize=13.3;fontColor=default;fontStyle=1;strokeOpacity=100;strokeWidth=0.8;rounded=1;arcSize=12;edgeStyle=orthogonalEdgeStyle;jumpStyle=arc;startArrow=none;endArrow=block;endFill=1;exitX=1;exitY=0.5;exitPerimeter=0;entryX=0;entryY=0.5;entryPerimeter=0;lucidId=LU8RlfNH9A4h;fillColor=none;labelBackgroundColor=none;comic=0;backgroundOutline=1;fontFamily=Helvetica;" parent="DpDVmBFBOBijvgF_qr05-692" source="MVl43ReA70MVfQG40Yfd-5" target="MVl43ReA70MVfQG40Yfd-6" edge="1">
                    <mxGeometry width="100" height="100" relative="1" as="geometry">
                        <Array as="points"/>
                    </mxGeometry>
                </mxCell>
                <mxCell id="MVl43ReA70MVfQG40Yfd-18" value="No" style="text;html=1;resizable=0;labelBackgroundColor=default;align=center;verticalAlign=middle;fontStyle=1;fontSize=13.3;labelBorderColor=none;rounded=1;comic=0;backgroundOutline=1;fontFamily=Helvetica;container=0;" parent="MVl43ReA70MVfQG40Yfd-17" vertex="1">
                    <mxGeometry relative="1" as="geometry"/>
                </mxCell>
                <mxCell id="MVl43ReA70MVfQG40Yfd-19" value="" style="html=1;jettySize=18;whiteSpace=wrap;fontSize=13;strokeOpacity=100;strokeWidth=0.8;rounded=1;arcSize=12;edgeStyle=orthogonalEdgeStyle;jumpStyle=arc;startArrow=none;endArrow=block;endFill=1;exitX=0.5;exitY=0;exitPerimeter=0;entryX=1;entryY=0.5;entryPerimeter=0;lucidId=YV8RZAM_mQc_;fillColor=none;labelBackgroundColor=none;fontColor=default;entryDx=0;entryDy=0;comic=0;backgroundOutline=1;fontFamily=Helvetica;" parent="DpDVmBFBOBijvgF_qr05-692" source="MVl43ReA70MVfQG40Yfd-6" target="DpDVmBFBOBijvgF_qr05-591" edge="1">
                    <mxGeometry width="100" height="100" relative="1" as="geometry">
                        <Array as="points">
                            <mxPoint x="353" y="594.1678321678321"/>
                            <mxPoint x="353" y="92.5174825174825"/>
                        </Array>
                        <mxPoint x="161" y="92.5174825174825" as="targetPoint"/>
                    </mxGeometry>
                </mxCell>
                <mxCell id="DpDVmBFBOBijvgF_qr05-600" value="" style="edgeLabel;html=1;align=center;verticalAlign=middle;resizable=0;points=[];labelBackgroundColor=none;fontFamily=Helvetica;rounded=1;container=0;comic=0;" parent="MVl43ReA70MVfQG40Yfd-19" vertex="1" connectable="0">
                    <mxGeometry x="-0.3374" y="-1" relative="1" as="geometry">
                        <mxPoint as="offset"/>
                    </mxGeometry>
                </mxCell>
                <mxCell id="MVl43ReA70MVfQG40Yfd-20" value="" style="html=1;jettySize=18;whiteSpace=wrap;fontSize=13.3;fontColor=default;fontStyle=1;strokeOpacity=100;strokeWidth=0.8;rounded=1;arcSize=12;edgeStyle=orthogonalEdgeStyle;jumpStyle=arc;startArrow=none;endArrow=block;endFill=1;exitX=0.5;exitY=1;exitPerimeter=0;entryX=0.5;entryY=0;entryPerimeter=0;lucidId=8W8RIzCVjgOf;fillColor=none;labelBackgroundColor=none;comic=0;backgroundOutline=1;fontFamily=Helvetica;" parent="DpDVmBFBOBijvgF_qr05-692" source="MVl43ReA70MVfQG40Yfd-5" target="MVl43ReA70MVfQG40Yfd-7" edge="1">
                    <mxGeometry width="100" height="100" relative="1" as="geometry">
                        <Array as="points"/>
                    </mxGeometry>
                </mxCell>
                <mxCell id="MVl43ReA70MVfQG40Yfd-21" value="Yes" style="text;html=1;resizable=0;labelBackgroundColor=default;align=center;verticalAlign=middle;fontStyle=1;fontSize=13.3;rounded=1;comic=0;backgroundOutline=1;fontFamily=Helvetica;container=0;" parent="MVl43ReA70MVfQG40Yfd-20" vertex="1">
                    <mxGeometry relative="1" as="geometry"/>
                </mxCell>
                <mxCell id="MVl43ReA70MVfQG40Yfd-22" value="" style="html=1;jettySize=18;whiteSpace=wrap;fontSize=13.3;fontColor=default;fontStyle=1;strokeOpacity=100;strokeWidth=0.8;rounded=1;arcSize=12;edgeStyle=orthogonalEdgeStyle;jumpStyle=arc;startArrow=none;endArrow=block;endFill=1;exitX=1;exitY=0.5;exitPerimeter=0;entryX=0.5;entryY=1;entryPerimeter=0;lucidId=-Z8RjEDamkYH;fillColor=none;labelBackgroundColor=none;comic=0;backgroundOutline=1;fontFamily=Helvetica;" parent="DpDVmBFBOBijvgF_qr05-692" source="MVl43ReA70MVfQG40Yfd-7" target="MVl43ReA70MVfQG40Yfd-6" edge="1">
                    <mxGeometry width="100" height="100" relative="1" as="geometry">
                        <Array as="points"/>
                    </mxGeometry>
                </mxCell>
                <mxCell id="MVl43ReA70MVfQG40Yfd-23" value="No" style="text;resizable=0;labelBackgroundColor=default;align=center;verticalAlign=middle;fontStyle=1;fontSize=13.3;textShadow=0;html=1;rounded=1;comic=0;backgroundOutline=1;fontFamily=Helvetica;container=0;" parent="MVl43ReA70MVfQG40Yfd-22" vertex="1">
                    <mxGeometry relative="1" as="geometry">
                        <mxPoint x="-82" as="offset"/>
                    </mxGeometry>
                </mxCell>
                <mxCell id="MVl43ReA70MVfQG40Yfd-24" value="" style="html=1;jettySize=18;whiteSpace=wrap;fontSize=13.3;fontColor=default;fontStyle=1;strokeOpacity=100;strokeWidth=0.8;rounded=1;arcSize=12;edgeStyle=orthogonalEdgeStyle;jumpStyle=arc;startArrow=none;endArrow=block;endFill=1;exitX=0.5;exitY=1;exitPerimeter=0;entryX=0.5;entryY=0;entryPerimeter=0;lucidId=B08RHsKl__qJ;fillColor=none;labelBackgroundColor=none;comic=0;backgroundOutline=1;fontFamily=Helvetica;" parent="DpDVmBFBOBijvgF_qr05-692" source="MVl43ReA70MVfQG40Yfd-7" target="MVl43ReA70MVfQG40Yfd-11" edge="1">
                    <mxGeometry width="100" height="100" relative="1" as="geometry">
                        <Array as="points"/>
                    </mxGeometry>
                </mxCell>
                <mxCell id="MVl43ReA70MVfQG40Yfd-25" value="Yes" style="text;html=1;resizable=0;labelBackgroundColor=default;align=center;verticalAlign=middle;fontStyle=1;fontSize=13.3;rounded=1;comic=0;backgroundOutline=1;fontFamily=Helvetica;container=0;" parent="MVl43ReA70MVfQG40Yfd-24" vertex="1">
                    <mxGeometry relative="1" as="geometry"/>
                </mxCell>
                <mxCell id="MVl43ReA70MVfQG40Yfd-27" value="" style="html=1;jettySize=18;whiteSpace=wrap;fontSize=13.3;fontColor=default;fontStyle=1;strokeOpacity=100;strokeWidth=0.8;rounded=1;arcSize=12;edgeStyle=orthogonalEdgeStyle;startArrow=none;endArrow=block;endFill=1;exitX=0.5;exitY=1;exitPerimeter=0;entryX=0.5;entryY=0;entryPerimeter=0;lucidId=~p9R0Vp.HrPh;fillColor=none;labelBackgroundColor=none;comic=0;backgroundOutline=1;fontFamily=Helvetica;" parent="DpDVmBFBOBijvgF_qr05-692" source="MVl43ReA70MVfQG40Yfd-11" target="MVl43ReA70MVfQG40Yfd-8" edge="1">
                    <mxGeometry width="100" height="100" relative="1" as="geometry">
                        <Array as="points"/>
                    </mxGeometry>
                </mxCell>
                <mxCell id="MVl43ReA70MVfQG40Yfd-28" value="Yes" style="text;html=1;resizable=0;labelBackgroundColor=default;align=center;verticalAlign=middle;fontStyle=1;fontSize=13.3;rounded=1;comic=0;backgroundOutline=1;fontFamily=Helvetica;container=0;" parent="MVl43ReA70MVfQG40Yfd-27" vertex="1">
                    <mxGeometry relative="1" as="geometry"/>
                </mxCell>
                <mxCell id="MVl43ReA70MVfQG40Yfd-29" value="" style="html=1;jettySize=18;whiteSpace=wrap;fontSize=13.3;fontColor=default;fontStyle=1;strokeOpacity=100;strokeWidth=0.8;rounded=1;arcSize=12;edgeStyle=orthogonalEdgeStyle;startArrow=none;endArrow=block;endFill=1;exitX=1;exitY=0.5;exitPerimeter=0;entryX=0;entryY=0.5;entryPerimeter=0;lucidId=cq9ReEkTmsDZ;fillColor=none;labelBackgroundColor=none;comic=0;backgroundOutline=1;fontFamily=Helvetica;" parent="DpDVmBFBOBijvgF_qr05-692" source="MVl43ReA70MVfQG40Yfd-11" target="MVl43ReA70MVfQG40Yfd-12" edge="1">
                    <mxGeometry width="100" height="100" relative="1" as="geometry">
                        <Array as="points"/>
                    </mxGeometry>
                </mxCell>
                <mxCell id="MVl43ReA70MVfQG40Yfd-30" value="No" style="text;resizable=0;labelBackgroundColor=default;align=center;verticalAlign=middle;fontStyle=1;fontSize=13.3;html=1;rounded=1;comic=0;backgroundOutline=1;fontFamily=Helvetica;container=0;" parent="MVl43ReA70MVfQG40Yfd-29" vertex="1">
                    <mxGeometry relative="1" as="geometry"/>
                </mxCell>
                <mxCell id="MVl43ReA70MVfQG40Yfd-32" value="" style="html=1;jettySize=18;whiteSpace=wrap;fontSize=13;strokeOpacity=100;strokeWidth=0.8;rounded=1;arcSize=12;edgeStyle=orthogonalEdgeStyle;startArrow=none;endArrow=block;endFill=1;exitX=0.5;exitY=0;exitPerimeter=0;entryX=1;entryY=0.5;entryPerimeter=0;lucidId=tr9RoRQGfVzw;fillColor=none;labelBackgroundColor=none;fontColor=default;entryDx=0;entryDy=0;comic=0;backgroundOutline=1;fontFamily=Helvetica;" parent="DpDVmBFBOBijvgF_qr05-692" source="MVl43ReA70MVfQG40Yfd-13" target="DpDVmBFBOBijvgF_qr05-591" edge="1">
                    <mxGeometry width="100" height="100" relative="1" as="geometry">
                        <Array as="points">
                            <mxPoint x="573" y="884.055944055944"/>
                            <mxPoint x="573" y="489.3146853146853"/>
                            <mxPoint x="353" y="489.3146853146853"/>
                            <mxPoint x="353" y="92.5174825174825"/>
                        </Array>
                        <mxPoint x="161" y="92.5174825174825" as="targetPoint"/>
                    </mxGeometry>
                </mxCell>
                <mxCell id="DpDVmBFBOBijvgF_qr05-601" value="" style="edgeLabel;html=1;align=center;verticalAlign=middle;resizable=0;points=[];labelBackgroundColor=none;fontFamily=Helvetica;rounded=1;container=0;comic=0;" parent="MVl43ReA70MVfQG40Yfd-32" vertex="1" connectable="0">
                    <mxGeometry x="-0.0064" relative="1" as="geometry">
                        <mxPoint as="offset"/>
                    </mxGeometry>
                </mxCell>
                <mxCell id="DpDVmBFBOBijvgF_qr05-602" value="" style="edgeLabel;html=1;align=center;verticalAlign=middle;resizable=0;points=[];labelBackgroundColor=none;fontFamily=Helvetica;rounded=1;container=0;comic=0;" parent="MVl43ReA70MVfQG40Yfd-32" vertex="1" connectable="0">
                    <mxGeometry x="-0.0117" relative="1" as="geometry">
                        <mxPoint as="offset"/>
                    </mxGeometry>
                </mxCell>
                <mxCell id="DpDVmBFBOBijvgF_qr05-604" value="" style="edgeLabel;html=1;align=center;verticalAlign=middle;resizable=0;points=[];labelBackgroundColor=none;fontFamily=Helvetica;rounded=1;container=0;comic=0;" parent="MVl43ReA70MVfQG40Yfd-32" vertex="1" connectable="0">
                    <mxGeometry x="-0.0826" y="2" relative="1" as="geometry">
                        <mxPoint as="offset"/>
                    </mxGeometry>
                </mxCell>
                <mxCell id="DpDVmBFBOBijvgF_qr05-605" value="" style="edgeLabel;html=1;align=center;verticalAlign=middle;resizable=0;points=[];labelBackgroundColor=none;fontFamily=Helvetica;rounded=1;container=0;comic=0;" parent="MVl43ReA70MVfQG40Yfd-32" vertex="1" connectable="0">
                    <mxGeometry x="-0.3644" relative="1" as="geometry">
                        <mxPoint x="1" as="offset"/>
                    </mxGeometry>
                </mxCell>
                <mxCell id="DpDVmBFBOBijvgF_qr05-606" value="" style="edgeLabel;html=1;align=center;verticalAlign=middle;resizable=0;points=[];labelBackgroundColor=none;fontFamily=Helvetica;rounded=1;container=0;comic=0;" parent="MVl43ReA70MVfQG40Yfd-32" vertex="1" connectable="0">
                    <mxGeometry x="-0.8311" y="-2" relative="1" as="geometry">
                        <mxPoint as="offset"/>
                    </mxGeometry>
                </mxCell>
                <mxCell id="DpDVmBFBOBijvgF_qr05-607" value="" style="edgeLabel;html=1;align=center;verticalAlign=middle;resizable=0;points=[];labelBackgroundColor=none;fontFamily=Helvetica;rounded=1;container=0;comic=0;" parent="MVl43ReA70MVfQG40Yfd-32" vertex="1" connectable="0">
                    <mxGeometry x="-0.156" y="3" relative="1" as="geometry">
                        <mxPoint x="1" as="offset"/>
                    </mxGeometry>
                </mxCell>
                <mxCell id="DpDVmBFBOBijvgF_qr05-608" value="" style="edgeLabel;html=1;align=center;verticalAlign=middle;resizable=0;points=[];labelBackgroundColor=none;fontFamily=Helvetica;rounded=1;container=0;comic=0;" parent="MVl43ReA70MVfQG40Yfd-32" vertex="1" connectable="0">
                    <mxGeometry x="-0.2189" y="-1" relative="1" as="geometry">
                        <mxPoint x="1" as="offset"/>
                    </mxGeometry>
                </mxCell>
                <mxCell id="DpDVmBFBOBijvgF_qr05-609" value="" style="edgeLabel;html=1;align=center;verticalAlign=middle;resizable=0;points=[];labelBackgroundColor=none;fontFamily=Helvetica;rounded=1;container=0;comic=0;" parent="MVl43ReA70MVfQG40Yfd-32" vertex="1" connectable="0">
                    <mxGeometry x="-0.6274" relative="1" as="geometry">
                        <mxPoint as="offset"/>
                    </mxGeometry>
                </mxCell>
                <mxCell id="DpDVmBFBOBijvgF_qr05-610" value="" style="edgeLabel;html=1;align=center;verticalAlign=middle;resizable=0;points=[];labelBackgroundColor=none;fontFamily=Helvetica;rounded=1;container=0;comic=0;" parent="MVl43ReA70MVfQG40Yfd-32" vertex="1" connectable="0">
                    <mxGeometry x="-0.6772" y="1" relative="1" as="geometry">
                        <mxPoint as="offset"/>
                    </mxGeometry>
                </mxCell>
                <mxCell id="DpDVmBFBOBijvgF_qr05-611" value="" style="edgeLabel;html=1;align=center;verticalAlign=middle;resizable=0;points=[];labelBackgroundColor=none;fontFamily=Helvetica;rounded=1;container=0;comic=0;" parent="MVl43ReA70MVfQG40Yfd-32" vertex="1" connectable="0">
                    <mxGeometry x="-0.2443" y="-1" relative="1" as="geometry">
                        <mxPoint as="offset"/>
                    </mxGeometry>
                </mxCell>
                <mxCell id="DpDVmBFBOBijvgF_qr05-612" value="" style="edgeLabel;html=1;align=center;verticalAlign=middle;resizable=0;points=[];labelBackgroundColor=none;fontFamily=Helvetica;rounded=1;container=0;comic=0;" parent="MVl43ReA70MVfQG40Yfd-32" vertex="1" connectable="0">
                    <mxGeometry x="-0.9625" y="-1" relative="1" as="geometry">
                        <mxPoint as="offset"/>
                    </mxGeometry>
                </mxCell>
                <mxCell id="DpDVmBFBOBijvgF_qr05-593" value="End" style="strokeWidth=2;html=1;shape=mxgraph.flowchart.start_1;whiteSpace=wrap;comic=0;backgroundOutline=1;fillColor=none;fontFamily=Helvetica;labelBackgroundColor=none;rounded=1;container=0;" parent="DpDVmBFBOBijvgF_qr05-692" vertex="1">
                    <mxGeometry x="51" y="1387.7622377622376" width="100" height="61.67832167832167" as="geometry"/>
                </mxCell>
                <mxCell id="DpDVmBFBOBijvgF_qr05-594" style="edgeStyle=orthogonalEdgeStyle;rounded=1;orthogonalLoop=1;jettySize=auto;html=1;entryX=0.5;entryY=0;entryDx=0;entryDy=0;entryPerimeter=0;comic=0;backgroundOutline=1;fontFamily=Helvetica;labelBackgroundColor=none;fontColor=default;" parent="DpDVmBFBOBijvgF_qr05-692" source="MVl43ReA70MVfQG40Yfd-8" target="DpDVmBFBOBijvgF_qr05-593" edge="1">
                    <mxGeometry relative="1" as="geometry"/>
                </mxCell>
                <mxCell id="DpDVmBFBOBijvgF_qr05-591" value="Start" style="strokeWidth=2;html=1;shape=mxgraph.flowchart.start_1;whiteSpace=wrap;fillColor=none;comic=0;backgroundOutline=1;fontFamily=Helvetica;labelBackgroundColor=none;rounded=1;container=0;" parent="DpDVmBFBOBijvgF_qr05-692" vertex="1">
                    <mxGeometry x="51.5" y="61.67832167832168" width="100" height="61.67832167832167" as="geometry"/>
                </mxCell>
            </root>
        </mxGraphModel>
    </diagram>
</mxfile>